<svg xmlns="http://www.w3.org/2000/svg" width="97.946" height="81.517" viewBox="0 0 97.946 81.517"><g id="Group_100" data-name="Group 100" transform="translate(-903 -55.109)"><path id="Subtraction_1" data-name="Subtraction 1" d="M40.02,80.036h0L28.3,68.315H11.722V51.739L0,40.018,11.722,28.3V11.721H28.3L40.02,0,51.74,11.721H68.316V28.3L80.037,40.018,68.316,51.739V68.315H51.74L40.82,79.236l-.8.8ZM31.5,68.315l8.52,8.52,3.26-3.261,5.259-5.259H31.5ZM66.053,54,54,66.051H66.053V54ZM13.986,54V66.051H26.034L13.986,54ZM39.979,15.8l-.139,0c-12.787.185-23.19,10.953-23.19,24s10.4,23.819,23.19,24l.139,0h.351c.17,0,.327,0,.48-.008,12.627-.341,22.9-11.106,22.9-24s-10.273-23.658-22.9-24c-.167-.006-.324-.009-.48-.009h-.351ZM11.722,31.5,4.007,39.213l-.478.478-.327.327,3.06,3.06,5.46,5.46V31.5Zm56.594,0V48.537l8.519-8.519-7.081-7.082L68.316,31.5ZM54,13.985,66.053,26.034V13.985H54Zm-40.019,0V26.032L26.033,13.985H13.986ZM40.02,3.2l-7.8,7.8-.723.723H48.539L45.748,8.93Zm-.362,59.6h0l-.044,0-.045,0C37,62.511,34.6,59.222,32.984,53.771h6.673V62.8Zm.746-.017h0V53.771l6.556,0c-1.621,5.372-4.01,8.657-6.555,9.014Zm2.809-.348h0c1.865-1.649,3.464-4.646,4.626-8.665l5.828,0a21.555,21.555,0,0,1-4.658,5.583A14.819,14.819,0,0,1,43.213,62.435ZM36.487,62.2c-3.706-1.228-7.106-4.22-9.573-8.423h5.207c1.1,3.817,2.612,6.729,4.367,8.423Zm-4.174-.924a23.633,23.633,0,0,1-9.765-7.5h3.227a20.818,20.818,0,0,0,6.539,7.5Zm16.807-.554h0a21.348,21.348,0,0,0,5.767-6.949h2.82A24.17,24.17,0,0,1,49.121,60.718Zm-23.58-7.393H22.21A23.767,23.767,0,0,1,19,47.33h4.329a27.912,27.912,0,0,0,2.214,5.994Zm6.453,0H26.657a26.867,26.867,0,0,1-2.444-5.994H30.8a45.146,45.146,0,0,0,1.2,5.994Zm.862,0h0a44.259,44.259,0,0,1-1.222-5.994h8.025v5.994Zm7.549,0h0V47.327l7.937,0a43.741,43.741,0,0,1-1.249,5.994Zm7.561,0h0a45.239,45.239,0,0,0,1.195-5.994l7.238,0a26.816,26.816,0,0,1-2.471,5.995Zm7.158,0h0a27.915,27.915,0,0,0,2.212-5.994H61.3a23.756,23.756,0,0,1-3.247,5.994Zm-31.9-6.437H18.84a21.916,21.916,0,0,1-1.168-6.7h4.756a31.533,31.533,0,0,0,.791,6.7Zm.875,0h0a28.162,28.162,0,0,1-.889-6.7h7.11a57.506,57.506,0,0,0,.427,6.7Zm7.48,0h0a55.574,55.574,0,0,1-.438-6.7h8.523v6.7Zm8.83,0h0v-6.7l8.448,0a54.35,54.35,0,0,1-.45,6.7Zm8.813,0h0a57.332,57.332,0,0,0,.427-6.7l7.774,0a27.851,27.851,0,0,1-.9,6.7Zm8.226,0h0a31.464,31.464,0,0,0,.788-6.7h4.4a21.652,21.652,0,0,1-1.181,6.7ZM17.67,39.728h0a21.705,21.705,0,0,1,.86-5.876h4.456a31.8,31.8,0,0,0-.558,5.876Zm5.533,0h0a28.054,28.054,0,0,1,.655-5.876h6.757a58.235,58.235,0,0,0-.3,5.876Zm7.932,0h0a56.092,56.092,0,0,1,.322-5.876h8.2v5.876Zm9.269,0h0V33.848l8.123,0a55.519,55.519,0,0,1,.325,5.876Zm9.24,0h0a58.27,58.27,0,0,0-.3-5.876l7.424,0a28.228,28.228,0,0,1,.653,5.876Zm8.589,0h0a31.751,31.751,0,0,0-.559-5.876h4.106a21.789,21.789,0,0,1,.858,5.876ZM18.665,33.4h0A23.594,23.594,0,0,1,21.8,27h3.393a28.515,28.515,0,0,0-2.118,6.4Zm5.3,0h0A27.255,27.255,0,0,1,26.345,27h5.461a47.387,47.387,0,0,0-1.143,6.4Zm7.549,0h0A46.2,46.2,0,0,1,32.7,27h6.958v6.4Zm8.9,0h0V27l6.873,0a46.119,46.119,0,0,1,1.2,6.4Zm8.891,0h0A47.231,47.231,0,0,0,48.15,27l6.136,0a27.262,27.262,0,0,1,2.377,6.4Zm12.351,0H57.586a28.53,28.53,0,0,0-2.121-6.4h3.056a23.6,23.6,0,0,1,3.125,6.4Zm-39.53-6.844h0a24.588,24.588,0,0,1,4.413-4.661,23.3,23.3,0,0,1,5.446-3.312,21.318,21.318,0,0,0-6.566,7.973Zm4.471,0h0a22.392,22.392,0,0,1,4.326-5.625,15.642,15.642,0,0,1,5.454-3.387c-1.817,1.824-3.354,4.94-4.444,9.012Zm6.234,0h0a23.5,23.5,0,0,1,2.9-6.773c1.2-1.757,2.489-2.733,3.843-2.9h0l.085-.005v9.679Zm7.583,0h0V16.878c1.352.173,2.644,1.151,3.84,2.906a23.527,23.527,0,0,1,2.91,6.763Zm7.629,0h0c-1.145-4.274-2.84-7.584-4.772-9.32a14.805,14.805,0,0,1,6.036,3.3,22.013,22.013,0,0,1,4.749,6.015Zm10.171,0H55.248a21.665,21.665,0,0,0-6.064-7.6,24.03,24.03,0,0,1,9.02,7.6Z" transform="translate(913.503 55.816)" fill="#bc4476" stroke="rgba(0,0,0,0)" stroke-width="1"/><path id="Shape_1" data-name="Shape 1" d="M97.281,115.711c10.038-3.655,27.184,1.854-10.767,25.469-33.2,20.658-72.8,35.083-56.294,13.937,1.389-1.781,5.4-6.76,5.865-7.345a50.318,50.318,0,0,0-14.931,15.456c-10.1,16.365,35.052,5.575,71.49-20.5,52.676-37.69,4.194-28.367,14.289-29.388C104.728,113.566,104.584,113.375,97.281,115.711Z" transform="translate(883.286 -47.017)" fill="#fece6e"/></g></svg>