<svg width="224" height="95" viewBox="0 0 224 95" xmlns="http://www.w3.org/2000/svg" xmlns:xlink="http://www.w3.org/1999/xlink"><title>ar-logo</title><defs><path id="a" d="M0 49.725V.173h75.817v49.552z"/></defs><g fill="none" fill-rule="evenodd"><g transform="translate(.945 5.035)"><mask id="b" fill="#fff"><use xlink:href="#a"/></mask><path d="M49.95 31.17c-.028-.095-.028-.157-.057-.182a4.122 4.122 0 0 0-2.335-.977c-.57-.055-1.063.122-1.495.483-.077.064-.1.195-.172.342 1.361.517 2.69.568 4.06.334M7.76.173c.246.308.205.605.1.885-.214.578-.428 1.16-.69 1.717-.4.849-.848 1.674-1.26 2.516a80.346 80.346 0 0 0-.973 2.08c-.419.92-.837 1.843-1.237 2.772-.823 1.913-1.39 3.912-1.87 5.933-.263 1.115-.262 2.258.07 3.377.112.382.263.742.51 1.06.314.406.707.673 1.202.8.82.208 1.461-.1 1.784-.888.084-.205.13-.426.21-.633a2.5 2.5 0 0 1 .205-.39c.02-.032.09-.063.125-.052.063.02.149.059.166.11.047.139.09.288.084.431-.01.296-.031.595-.088.885a35.72 35.72 0 0 1-.392 1.737 6.536 6.536 0 0 1-.982 2.144c-.167.241-.355.487-.586.659-.306.227-.44.515-.485.872-.08.638-.193 1.274-.233 1.915-.115 1.839.484 3.403 1.833 4.657.144.133.3.257.464.362 1.686 1.065 3.496 1.763 5.495 1.91.61.044 1.217.16 1.825.164 1.273.008 2.546-.075 3.8-.307 1.563-.29 3.122-.606 4.676-.945 2.23-.488 4.377-1.243 6.498-2.082a40.027 40.027 0 0 0 5.156-2.5c.402-.23.785-.494 1.149-.726.023-.684-.24-1.48-.797-2.477-.495-.886-.583-.984-1.75-1.934.017-.502.024-1.043.058-1.582.047-.74.114-1.48.176-2.218.008-.098.03-.195.057-.29.033-.11.208-.177.306-.114.102.065.203.138.289.223.827.818 1.548 1.727 2.099 2.755a7.52 7.52 0 0 1 .87 4.158 13.461 13.461 0 0 1-.619 3.123c-.338 1.057-.947 1.894-1.877 2.477a37.53 37.53 0 0 1-1.97 1.15c-.817.444-1.65.858-2.534 1.316-.08.636-.145 1.324-.26 2.003-.178 1.062-.12 2.125-.01 3.18a6.325 6.325 0 0 0 1.284 3.195c.584.77 1.382 1.249 2.296 1.524a7.453 7.453 0 0 0 3.98.111c2.03-.489 4.007-1.117 5.907-1.986 1.453-.664 2.823-1.48 4.142-2.381a55.88 55.88 0 0 0 1.978-1.415c1.42-1.063 2.68-2.31 3.942-3.555.21-.206.389-.444.573-.675.108-.137.09-.274-.084-.421-.464.121-.953.273-1.452.375-1.445.297-2.898.467-4.37.19-.758-.144-1.452-.413-2.038-.947-.402-.367-.646-.798-.695-1.344-.186-2.08.295-3.977 1.514-5.673.367-.51.844-.896 1.38-1.202a2.693 2.693 0 0 1 1.694-.348c.902.105 1.71.43 2.43.965 1.086.807 1.9 1.847 2.472 3.081.071.153.16.299.23.43.324.053.564-.094.8-.21 1.365-.667 2.733-1.33 4.082-2.03.978-.509 1.93-1.07 2.89-1.614.27-.154.568-.276.841-.56-.21-.076-.356-.143-.51-.182-1.66-.426-3.323-.837-4.979-1.277-.42-.112-.803-.156-1.205.05-.286.148-.606.188-.93.17-.683-.037-1.367-.058-2.05-.113a12.69 12.69 0 0 0-3.071.141c-.285.046-.553.193-.83.288-.259.089-.438-.067-.383-.344.048-.242.107-.484.191-.716.279-.766.57-1.528.859-2.29.144-.383.385-.66.753-.866.751-.424 1.51-.818 2.353-1.016 1.172-.275 2.336-.184 3.487.119 1.302.342 2.596.712 3.898 1.055 1.727.454 3.447.943 5.205 1.268a58.14 58.14 0 0 0 5.453.734c1.176.104 2.348.017 3.52.056.413.013.828-.065 1.242-.094.146-.01.302-.028.436.015.093.03.204.15.22.244.023.138-.015.294-.058.433-.277.897-.562 1.792-.844 2.687-.007.024-.01.048-.02.072-.279.75-.331.753-.985.742-.463-.007-.928.027-1.387-.011-.887-.074-1.759.069-2.635.144-.511.044-1.025.1-1.527.2-1.419.284-2.805.68-4.12 1.302a64.374 64.374 0 0 0-4.5 2.343c-1.787 1.026-3.624 1.96-5.439 2.934-.106.057-.211.117-.338.188-.027.271-.039.54-.082.805-.338 2.052-1.155 3.855-2.573 5.397-1.651 1.797-3.596 3.198-5.624 4.5-.372.24-.754.462-1.119.712-1.28.876-2.657 1.579-4.04 2.265-.989.492-2.035.85-3.094 1.157-.963.278-1.926.56-2.932.66-1.119.11-2.178-.022-3.22-.487-.802-.358-1.478-.863-2.12-1.442-.577-.52-.97-1.163-1.273-1.88a9.215 9.215 0 0 1-.744-3.757c.014-1.04.008-2.08.056-3.117.044-.965.182-1.921.455-2.852.04-.135.062-.276.09-.397-.188-.138-.31-.029-.439.019-1.446.538-2.872 1.14-4.343 1.598-2.173.678-4.399 1.16-6.638 1.577-1.45.27-2.912.44-4.377.4-2.59-.071-5.042-.725-7.195-2.238-1.64-1.152-2.544-2.776-2.698-4.8-.14-1.842.057-3.653.544-5.433.111-.405.205-.814.318-1.266-.122-.065-.238-.15-.367-.192-.683-.226-1.166-.681-1.572-1.272-.734-1.068-.899-2.283-.96-3.527-.068-1.399.223-2.755.494-4.115.29-1.462.765-2.866 1.31-4.243A181.354 181.354 0 0 1 3.83 7.409c.263-.61.612-1.18.909-1.776.704-1.413 1.4-2.83 2.102-4.245.142-.287.292-.57.445-.852a.67.67 0 0 1 .476-.363z" fill="#2B4F02" mask="url(#b)"/></g><path d="M115.672 35.01c-.62-.777-1.32-1.287-2.047-1.528-.967-.32-2.049.2-2.457 1.207 1.44.639 2.92.619 4.504.32m40.567.435c1.033-.253 2.987-.93 3.44-1.195-.07-.071-.127-.152-.202-.201-.594-.391-1.176-.803-1.793-1.153a7.506 7.506 0 0 0-1.347-.571 2.365 2.365 0 0 0-.863-.1c-.523.03-.913.291-1.114.784.287.548 1.003 1.474 1.879 2.436m-26.441 5.007c-.618-.063-1.155-.08-1.678-.177-1.158-.216-1.993-.9-2.533-1.945-.31-.598-.455-1.253-.522-1.922-.054-.538-.088-1.079-.134-1.675-.125.023-.247.017-.338.067-.301.166-.597.342-.883.531-1.127.746-2.274 1.455-3.48 2.065-.043.021-.075.062-.11.092 0 .248.006.494 0 .74-.044 1.825-.358 3.603-1.125 5.259a10.427 10.427 0 0 1-2.338 3.21 28.98 28.98 0 0 1-4.623 3.528 88.86 88.86 0 0 1-4.901 2.84c-1.034.553-2.134.993-3.235 1.4-1.33.492-2.666.983-4.054 1.297-.835.19-1.677.344-2.512.533-1.335.303-2.667.625-4.003.933-2.287.528-4.576 1.054-6.865 1.575-.286.065-.579.099-.87.138-.127.018-.267-.007-.285-.157-.014-.11.005-.269.074-.335.121-.113.286-.19.444-.247.873-.323 1.741-.66 2.626-.945 2.358-.758 4.66-1.662 6.93-2.651a402.095 402.095 0 0 0 7.924-3.53c2.739-1.265 5.414-2.66 7.973-4.271 1.476-.93 2.934-1.89 4.255-3.037 1.021-.886 1.987-1.833 2.754-2.968.15-.222.219-.443.161-.696-.12-.528-.259-1.05-.459-1.575-.283-.018-.493.116-.718.19-1.332.447-2.69.725-4.104.69a7.014 7.014 0 0 1-2.633-.59c-.585-.253-1.05-.66-1.26-1.277a4.317 4.317 0 0 1-.248-1.23c-.078-2.32.691-4.322 2.3-5.978.29-.296.632-.552.986-.766.733-.445 1.51-.534 2.316-.176.723.323 1.383.737 1.944 1.307a14.398 14.398 0 0 1 1.993 2.563c.128.208.26.415.39.623.337.052.587-.128.845-.248a24.606 24.606 0 0 0 4.064-2.367c.318-.23.641-.456.975-.661.819-.504 1.075-.268 1.106.564.023.642.079 1.284.151 1.923.181 1.583 1.247 2.712 2.796 3.03.685.14 1.353.154 2.035-.016.49-.121.911-.342 1.282-.682a5.651 5.651 0 0 0 1.502-2.257c.161-.44.308-.89.503-1.314.143-.31.34-.6.543-.876.078-.105.236-.168.37-.211.176-.057.36.113.319.292-.08.336-.152.679-.279.998-.216.545-.088 1.02.219 1.471.65.959 1.534 1.373 2.7 1.302a4.218 4.218 0 0 0 2.483-.972c.077-.063.167-.108.226-.145-.063-.516-.278-.872-.535-1.199a.932.932 0 0 1-.217-.607c0-1.144.149-2.271.355-3.392.016-.092.082-.175.15-.314.146.131.29.222.384.35.53.715.765 1.54.84 2.418a16.086 16.086 0 0 1-.29 4.8c-.063.29-.153.573-.242.856-.167.533-.45.986-.913 1.31-.201.14-.387.303-.593.437-1.053.684-2.201.789-3.383.482a2.674 2.674 0 0 1-1.026-.556c-.406-.348-.755-.77-1.1-1.185-.12-.144-.167-.355-.225-.542-.071-.233-.12-.474-.177-.702-.186-.045-.221.09-.273.195-.229.465-.458.93-.68 1.398a7.306 7.306 0 0 1-.996 1.552c-.25.3-.441.654-.623 1.003-.58 1.116-1.162 2.233-1.708 3.367-.624 1.296-1.03 2.672-1.327 4.079-.15.706-.143 1.429-.053 2.144.08.64.412 1.162.84 1.618.757.81 1.689 1.34 2.74 1.655.854.256 1.703.125 2.535-.096.446-.118.89-.288 1.295-.508a10.714 10.714 0 0 0 2.478-1.835c1.519-1.516 2.896-3.156 4.222-4.843.96-1.221 1.93-2.432 2.992-3.565.218-.233.472-.43.703-.651a25.692 25.692 0 0 1 2.713-2.27c.477-.343.994-.632 1.513-.91 1.211-.645 2.43-1.279 3.707-1.786.067-.027.13-.065.213-.107.007-.271-.181-.45-.318-.638-.576-.794-.797-1.665-.72-2.65.06-.769.144-1.524.356-2.265a6.868 6.868 0 0 1 .646-1.492c.546-.964 1.705-1.553 2.894-1.19a8.803 8.803 0 0 1 1.759.737c1.18.664 2.287 1.439 3.28 2.366.374.35.686.77 1.001 1.178.253.327.322.714.235 1.125-.194.92-.381 1.84-.582 2.758-.14.647-.513 1.058-1.129 1.344-.895.416-1.832.688-2.755 1.012-.322.113-.645.224-.996.346v.447c-.005.469-.001.938-.02 1.407-.005.132-.107.216-.304.163-.122-.555-.4-1.065-.712-1.556-.31-.035-.566.063-.808.166-1.418.609-2.84 1.208-4.24 1.857-.777.36-1.52.796-2.266 1.222-.88.502-1.624 1.186-2.39 1.843-1.901 1.631-3.405 3.613-4.894 5.61-1.284 1.723-2.651 3.376-4.227 4.834-.886.82-1.889 1.485-3.02 1.933-.519.205-1.059.221-1.592.21-1.2-.028-2.326-.306-3.233-1.182-.105-.102-.232-.18-.345-.275a5.824 5.824 0 0 1-1.596-2.098c-.62-1.365-.998-2.782-1.04-4.292-.038-1.356.192-2.667.616-3.938.4-1.195.866-2.367 1.481-3.472a9.1 9.1 0 0 0 .6-1.37z" fill="#2B4F02"/><path d="M156.358 57.757c.387-.38.793-.69 1.222-.971.985-.647 1.986-1.268 2.959-1.934 1.6-1.096 3.181-2.222 4.775-3.33 2.147-1.49 4.098-3.21 5.89-5.119.28-.3.423-.626.467-1.05.166-1.603.178-3.21.121-4.818-.02-.588-.164-1.173-.274-1.755-.25-1.324-.746-2.555-1.347-3.755-1.108-2.209-2.58-4.144-4.275-5.912-.834-.87-1.7-1.709-2.558-2.556-1.945-1.922-4.034-3.68-6.07-5.498-2.092-1.867-4.15-3.776-5.977-5.919a34.629 34.629 0 0 1-3.331-4.613c-.564-.937-.896-1.98-1.149-3.038-.358-1.497-.534-3.02-.39-4.566.018-.197.04-.393.063-.59.018-.158.07-.293.26-.292.188.002.235.15.272.296.128.502.276 1.001.376 1.51.274 1.392.942 2.537 2.031 3.43.285.234.57.47.851.708.244.206.491.41.723.63.653.619 1.037 1.384 1.072 2.289.018.454.16.813.469 1.122.851.853 1.7 1.71 2.557 2.557 1.978 1.96 4.141 3.707 6.2 5.573 2.041 1.85 4.068 3.717 5.911 5.776 1.855 2.073 3.381 4.362 4.456 6.942.967 2.32 1.32 4.75 1.196 7.262-.058 1.187-.12 2.371-.315 3.545-.024.142-.004.29-.004.556.117-.187.198-.275.23-.377.435-1.392.875-2.783 1.16-4.217.208-1.05.285-2.11.202-3.174-.088-1.135-.224-2.266-.332-3.399-.222-2.343-.676-4.65-1.036-6.973-.186-1.198-.355-2.398-.537-3.597a305.14 305.14 0 0 0-.467-3.007c-.22-1.367-.454-2.733-.675-4.1-.233-1.44-.458-2.883-.686-4.324-.232-1.466-.46-2.933-.701-4.397-.07-.42-.088-.829.007-1.25.232-1.037.445-2.079.671-3.118.042-.193.103-.381.166-.568.042-.123.222-.151.3-.048.073.096.149.198.19.31.293.787.558 1.584.723 2.412.353 1.77.736 3.534 1.05 5.31.232 1.315.371 2.646.562 3.968.18 1.249.369 2.496.56 3.743.264 1.71.53 3.422.803 5.131.155.977.339 1.95.488 2.927.434 2.836.86 5.675 1.284 8.513.114.758.207 1.519.32 2.277.214 1.448.537 2.87 1.078 4.232.692 1.744 1.881 2.989 3.632 3.658a5.374 5.374 0 0 0 2.014.355c.528-.01 1.063-.152 1.58-.293 1.62-.44 2.931-1.335 3.868-2.763.325-.495.663-.982 1-1.468.268-.385.583-.717 1.071-.923.057.134.14.24.138.344a6.03 6.03 0 0 1-.084.81c-.044.268-.114.532-.17.798-.12.571.018 1.061.392 1.516.888 1.077 2.773 1.688 4.283.915.642-.328 1.21-.734 1.643-1.332.888-1.229 1.583-2.553 2.02-4.014.048-.16.133-.316.23-.452.09-.124.23-.18.391-.119.151.059.257.163.241.332-.022.244-.051.49-.109.728-.092.385-.21.763-.315 1.144-.108.389-.02.72.24 1.031.818.976 1.844 1.245 3.042.95a3.08 3.08 0 0 0 1.299-.668c.009-.372-.21-.624-.424-.843-.306-.31-.398-.648-.352-1.074a22.95 22.95 0 0 1 .536-2.992c.028-.115.081-.223.143-.388.155.085.3.125.388.22.32.344.587.73.752 1.177.355.963.552 1.95.43 2.981-.109.933-.208 1.868-.34 2.798-.226 1.585-1.236 2.474-2.66 2.948-1.526.507-2.997-.173-3.803-1.238-.233-.307-.383-.678-.583-1.042-.129-.035-.185.096-.238.196-.174.326-.335.66-.502.99-.63 1.253-1.568 2.18-2.794 2.854-1.136.624-3.222.301-3.942-.47-.134-.143-.307-.249-.439-.393-.593-.649-.934-1.387-.772-2.3.035-.192.04-.39.057-.574-.172-.107-.247.02-.318.103-.128.148-.24.311-.357.47-.393.537-.782 1.077-1.179 1.612-.745 1.003-1.742 1.652-2.894 2.07-.436.158-.88.318-1.333.4-1.4.25-2.72-.021-3.962-.711-1.47-.818-2.506-2.02-3.16-3.583-.53-1.263-.86-2.577-1.09-3.922a5.576 5.576 0 0 0-.253-.97c-.064.31-.128.497-.14.688-.103 1.717-.552 3.362-.995 5.01-.42 1.565-1.077 3.03-1.84 4.44a11.084 11.084 0 0 1-4.843 4.713c-.746.378-1.504.707-2.316.916-.473.122-.931.302-1.394.462-1.48.513-2.958 1.035-4.44 1.542-.787.27-1.581.518-2.374.77-.16.052-.332.104-.516-.163M84.307 27.136c-.04-.073-.064-.148-.113-.196a5.44 5.44 0 0 0-1.558-1.083c-.542-.246-1.121-.343-1.708-.164a1.9 1.9 0 0 0-1.268 1.147c.546.398 1.115.67 1.769.636.898-.048 1.794-.144 2.69-.227.063-.006.12-.07.188-.113m9.443-13.339c.054.956.219 1.832.39 2.704.319 1.625.694 3.24 1.002 4.868.353 1.87.667 3.749.982 5.626.234 1.39.453 2.784.659 4.178.285 1.934.51 3.876.643 5.827.094 1.367-.02 2.718-.274 4.061-.179.948-.344 1.898-.672 2.81-.184.515-.392 1.01-.697 1.466-.383.573-.742 1.163-1.115 1.743-.446.692-1.045 1.244-1.646 1.786a46.6 46.6 0 0 1-4.618 3.666c-1.818 1.264-3.741 2.344-5.797 3.173-1.274.514-2.57.958-3.915 1.237-1.247.259-2.501.471-3.784.398a7.731 7.731 0 0 1-2.963-.767 8.35 8.35 0 0 1-2.49-1.8c-.887-.94-1.447-2.044-1.797-3.275-.073-.258-.142-.517-.217-.791-.129-.014-.226-.047-.315-.032-.987.17-1.978.324-2.96.525-2.277.466-4.541.99-6.752 1.725-.836.277-1.674.55-2.513.82a.669.669 0 0 1-.283.033.219.219 0 0 1-.151-.126.236.236 0 0 1 .05-.194.818.818 0 0 1 .243-.16c.708-.336 1.41-.687 2.129-1 2.539-1.1 5.118-2.109 7.591-3.365.612-.31 1.24-.59 1.858-.886.177-.085.351-.176.524-.268a.49.49 0 0 0 .273-.412c.006-.074.01-.149.01-.223.002-1.791.27-3.55.649-5.295.183-.845.365-1.693.605-2.523.26-.9.586-1.782.888-2.67.013-.035.075-.053.115-.08.207.04.172.21.172.348-.001.746-.127 1.476-.28 2.204-.348 1.645-.77 3.274-1.01 4.941-.127.885-.116 1.776-.05 2.666.003.042.042.081.088.167.146-.058.305-.104.45-.18 1.457-.758 2.931-1.485 4.361-2.293 1.751-.989 3.504-1.977 5.174-3.108 2.732-1.848 5.308-3.892 7.673-6.204.598-.585 1.155-1.208 1.59-1.953-.064-.194-.11-.387-.19-.564-.428-.951-.644-1.122-1.671-1.144-.682-.015-1.367.052-2.05.087-.83.042-1.663.153-2.49.116-1.193-.053-2.153-.64-2.813-1.645-.314-.477-.4-1.066-.429-1.634a6.689 6.689 0 0 1 .069-1.479c.216-1.225.614-2.395 1.24-3.472a5.448 5.448 0 0 1 1.424-1.586c.42-.32.923-.481 1.449-.434.765.069 1.483.293 2.095.802.799.663 1.544 1.377 2.119 2.25.87 1.324 1.626 2.708 2.03 4.26.056.213.082.433.118.65.028.171.02.356.083.512.292.73.266 1.506.321 2.266.032.438 0 .895-.087 1.326-.357 1.767-.958 3.43-2.198 4.783-.349.38-.718.744-1.103 1.087-.661.588-1.35 1.145-2.013 1.73-1.774 1.565-3.682 2.946-5.635 4.272a50.17 50.17 0 0 1-3.627 2.249c-.47.263-.92.567-1.39.831-1.068.6-2.131 1.216-3.334 1.517.037.33.236.518.432.7a12.11 12.11 0 0 0 2.574 1.833c.734.39 1.536.484 2.338.568 1.582.166 3.122-.103 4.646-.504 2.257-.595 4.42-1.45 6.51-2.487.744-.369 1.434-.847 2.152-1.271 1.655-.98 3.149-2.182 4.587-3.45.847-.747 1.73-1.465 2.426-2.37.944-1.228.868-1.023.723-2.486-.247-2.49-.655-4.954-1.032-7.424-.395-2.592-.765-5.188-1.204-7.773-.322-1.901-.748-3.784-1.107-5.68-.337-1.773-.643-3.553-.969-5.33a42.034 42.034 0 0 0-.378-1.89c-.385-1.667-.597-3.36-.73-5.063-.048-.611.028-1.221.097-1.832.154-1.357.432-2.685.81-3.993.08-.282.213-.55.336-.818.023-.048.12-.091.177-.084.059.008.132.068.159.125a1 1 0 0 1 .103.348c.02.296.045.596.018.89-.143 1.537.13 3.005.68 4.433.426 1.11.899 2.194 1.484 3.228.256.452.466.92.533 1.45.141 1.111-.066 2.07-1.103 2.733z" fill="#2B4F02"/><path d="M208.817 1.663c.194.013.257.124.267.246.016.17.004.345-.006.517-.061 1.071.063 2.126.259 3.175.18.973.704 1.784 1.21 2.604.298.482.614.954.895 1.447.699 1.225.736 2.485.143 3.765-.031.067-.061.136-.103.197-.201.286-.202.597-.134.924.303 1.477.598 2.956.908 4.432.3 1.428.633 2.848.912 4.28.332 1.698.637 3.402.922 5.108a59.79 59.79 0 0 1 .498 3.526c.165 1.552.25 3.11-.007 4.665-.069.414-.096.835-.135 1.254-.093.992-.37 1.94-.658 2.889-.122.4-.214.812-.301 1.222-.239 1.115-.53 2.215-.998 3.255a14.168 14.168 0 0 1-2.72 4.026 18.63 18.63 0 0 1-2.568 2.212 10.25 10.25 0 0 1-2.527 1.337c-.991.354-1.964.76-2.956 1.114-.852.304-1.723.555-2.578.85-.995.344-1.982.714-2.974 1.065-.23.082-.465.152-.702.202-.176.036-.326-.176-.264-.342.1-.271.296-.448.537-.585.447-.257.89-.52 1.34-.772 2.572-1.445 4.96-3.175 7.383-4.854 1.92-1.331 3.723-2.815 5.512-4.317.132-.111.253-.235.388-.342.395-.312.53-.704.539-1.222.03-1.822-.173-3.601-.721-5.342-.408-1.295-1.105-2.421-1.931-3.47-.41-.522-.875-1.002-1.328-1.488-1.143-1.224-2.294-2.441-3.573-3.524a119.291 119.291 0 0 0-4.991-4.032 113.51 113.51 0 0 1-4.557-3.63c-1.485-1.252-2.919-2.567-4.356-3.876a83.094 83.094 0 0 1-2.615-2.498 51.579 51.579 0 0 1-1.877-1.986c-.964-1.063-1.775-2.248-2.473-3.497a11.873 11.873 0 0 1-1.358-3.747c-.18-1.025-.346-2.048-.37-3.09a6.566 6.566 0 0 1 .024-.817.957.957 0 0 1 .15-.404c.042-.065.172-.12.243-.102.07.017.167.13.168.203.005.53.163 1.03.33 1.518.466 1.352 1.126 2.584 2.302 3.453.237.174.488.332.75.463.61.304 1.073.77 1.488 1.298.313.399.516.851.525 1.36.008.48.22.835.508 1.192 1.118 1.386 2.373 2.632 3.695 3.816 1.34 1.2 2.77 2.282 4.18 3.39 1.43 1.124 2.876 2.228 4.298 3.362.96.766 1.893 1.569 2.837 2.356.85.71 1.72 1.395 2.54 2.137 1.939 1.753 3.751 3.622 5.194 5.832.792 1.214 1.309 2.542 1.705 3.926.088.306.134.631.151.951.067 1.21.16 2.423.052 3.635-.048.541-.154 1.077-.232 1.616a47.25 47.25 0 0 0-.086.614c.148-.118.226-.158.273-.221.708-.96 1.033-2.044 1.142-3.237.18-1.966-.01-3.908-.274-5.846-.415-3.043-1.08-6.038-1.74-9.034-.404-1.835-.728-3.689-1.128-5.525-.665-3.046-1.107-6.133-1.694-9.193-.274-1.43-.486-2.878-.385-4.353.061-.898.246-1.763.484-2.621.118-.426.275-.842.424-1.259.03-.083.102-.15.144-.208m13.985 36.967c.084 1.136-.278 2.5-.704 3.845a56.234 56.234 0 0 1-1.056 3.007 22.77 22.77 0 0 1-.942 2.172c-.22.435-.538.823-.84 1.208-.116.147-.304.245-.475.333a21.323 21.323 0 0 1-3.46 1.426c-.186.057-.366.137-.547.211-.09.037-.173.11-.264.119-.086.009-.207-.018-.258-.078-.047-.056-.062-.203-.022-.26.141-.2.293-.398.474-.56.475-.428.963-.842 1.455-1.25.416-.344.86-.656 1.266-1.012.98-.857 1.962-1.712 2.765-2.755.5-.648.788-1.362.805-2.182.009-.395.022-.794-.012-1.187-.212-2.465-.444-4.926-.813-7.375-.302-2.005-.528-4.022-.796-6.033-.154-1.153-.332-2.302-.487-3.455-.344-2.573-.763-5.136-.983-7.727-.117-1.379-.361-2.747-.508-4.124-.223-2.09-.467-4.182-.347-6.292.063-1.116.247-2.21.529-3.29.132-.504.319-.988.642-1.403.05-.064.178-.13.234-.107.068.029.136.15.138.233.011.47.037.944-.006 1.41a9.783 9.783 0 0 0 .07 2.294c.044.312.141.63.28.914.302.62.644 1.221.973 1.828.293.542.593 1.08.887 1.622.554 1.02.558 2.084.216 3.163-.18.567-.403 1.132-.825 1.557-.302.304-.346.632-.299 1.014.083.662.157 1.326.252 1.987.166 1.15.35 2.297.516 3.447.228 1.565.445 3.132.67 4.698.357 2.498.74 4.992 1.067 7.493.208 1.594.367 3.195.405 5.11M102.007 10.925c.124.685.23 1.292.343 1.898.61 3.284 1.235 6.564 1.829 9.85.356 1.973.7 3.948.988 5.931.316 2.179.68 4.352.822 6.554.044.667.12 1.332.18 1.997.136 1.508.162 3.016-.017 4.52a75.565 75.565 0 0 1-.498 3.602c-.122.73-.333 1.445-.525 2.161-.106.397-.33.615-.503.525-.26-.136-.257-.404-.242-.648.043-.716.1-1.43.158-2.145.122-1.51.098-3.018-.054-4.523-.127-1.255-.238-2.514-.418-3.762a385.286 385.286 0 0 0-2.02-12.378c-.37-2.045-.764-4.085-1.148-6.128-.337-1.798-.683-3.596-1.005-5.398-.105-.583-.147-1.177-.215-1.767-.057-.492-.077-.99-.173-1.475-.19-.953-.2-1.921-.23-2.882-.025-.812.085-1.63.158-2.442.055-.616.102-1.238.23-1.84.16-.747.396-1.478.609-2.212.033-.113.114-.215.185-.313.067-.093.273-.048.304.066.033.117.058.239.068.36.035.395.05.791.093 1.184.073.664.155 1.326.245 1.987.133.97.489 1.857.951 2.712.316.585.597 1.19.863 1.8.17.39.205.816.144 1.24-.097.68-.414 1.212-1.122 1.526M39.321 48.152c-.036-.125-.105-.237-.092-.34.055-.44.14-.877.202-1.318.147-1.052.312-2.103.426-3.16.193-1.8.155-3.609.134-5.415a24.37 24.37 0 0 0-.153-2.37c-.164-1.5-.336-3-.556-4.493a171.94 171.94 0 0 0-.899-5.49c-.219-1.217-.52-2.417-.767-3.629-.317-1.55-.651-3.097-.912-4.657-.335-1.999-.61-4.009-.897-6.016-.055-.39-.048-.79-.058-1.186-.068-2.639.186-5.24.918-7.78.109-.38.274-.74.42-1.107.047-.116.128-.247.265-.186a.425.425 0 0 1 .216.265c.04.216.05.443.036.663a8.193 8.193 0 0 1-.125 1.031c-.312 1.578.052 3.047.687 4.471.262.586.566 1.153.833 1.736.674 1.47.624 2.929-.142 4.348a1.32 1.32 0 0 0-.131.926c.3 1.579.603 3.157.902 4.737.23 1.215.466 2.428.677 3.646a184.6 184.6 0 0 1 .666 4.102c.143.952.266 1.91.363 2.868.242 2.387.441 4.779.497 7.178a24.066 24.066 0 0 1-.255 4.215c-.105.684-.249 1.362-.356 2.046-.236 1.503-.766 2.91-1.351 4.301-.139.327-.143.325-.548.614M82.88 1.771c.013.102.028.135.017.15-.376.576-.745 1.158-1.14 1.722a.84.84 0 0 1-.406.286c-1.023.334-2.048.663-3.08.97-2.368.703-4.746 1.373-7.082 2.185-3.19 1.11-6.378 2.227-9.581 3.296-2.509.838-4.997 1.732-7.444 2.733-2.2.9-4.352 1.91-6.437 3.06-.493.271-.992.535-1.482.814a5.448 5.448 0 0 0-.61.41c-.67.513-.855 1.099-.543 1.886.181.457.44.883.668 1.32.069.13.155.25.247.397-.039.16-.065.33-.123.49-.143.396-.259.796-.295 1.22-.013.144-.071.286-.122.425-.024.064-.08.117-.148.215-.106-.05-.243-.07-.307-.15-.817-1.029-1.458-2.119-1.09-3.524.118-.454.222-.913.364-1.36.249-.78.602-1.518 1.03-2.211.436-.709 1.076-1.215 1.804-1.593 1.566-.812 3.126-1.634 4.737-2.358 3.379-1.519 6.848-2.782 10.374-3.9 2.192-.696 4.359-1.471 6.542-2.198 3.11-1.037 6.22-2.08 9.38-2.957 1.367-.38 2.72-.812 4.077-1.224.206-.063.403-.175.65-.104m55.768 5.108a2.487 2.487 0 0 0-.217-1.821c-.202-.38-.518-.588-.927-.624-.43-.037-.82.062-1.058.474.334.561 1.479 1.582 2.202 1.971m-.267 3.562c-.093.13-.161.203-.204.288-.42.842-.964 1.605-1.464 2.397-.922 1.462-2.094 2.67-3.454 3.703-1.604 1.219-3.26 2.363-5.004 3.37-.17.099-.337.203-.512.29-2.068 1.028-3.993 2.298-5.91 3.58-.347.232-.706.445-1.063.66-.055.032-.135.023-.246.039-.04-.341.09-.575.328-.774 1.265-1.054 2.51-2.133 3.867-3.068 1.598-1.1 3.196-2.2 4.778-3.322 1.122-.796 2.247-1.592 3.317-2.455 1.376-1.111 2.715-2.274 3.86-3.64.363-.432.673-.91 1.001-1.372.084-.118.142-.255.217-.394-.182-.351-.48-.569-.76-.802-.34-.283-.692-.551-1.033-.833-.422-.347-.758-.77-1.048-1.234-.248-.396-.327-.808-.2-1.273.19-.696.446-1.362.776-2 .184-.357.43-.662.775-.873.334-.205.659-.431 1.01-.602 1.003-.488 1.949-.025 2.313.864.25.607.374 1.23.307 1.883-.091.886-.186 1.774-.514 2.612-.106.272-.12.523.034.78.064.104.098.226.152.337.408.836.439 1.712.27 2.608-.156.829-.405 1.63-.706 2.416a49.26 49.26 0 0 0-.734 2.02 6.96 6.96 0 0 0-.309 1.218c-.055.388-.035.787-.026 1.18.01.465.273.777.65 1.01.63.387 1.282.139 1.504-.578.066-.212.116-.43.195-.637.04-.105.132-.19.188-.268.228.03.286.174.29.32.034 1.163-.16 2.283-.844 3.24-.605.844-1.284 1.117-2.294.242-.526-.456-.815-1.055-.923-1.727a5.863 5.863 0 0 1 .195-2.713c.406-1.295.734-2.618 1.27-3.872.125-.292.199-.611.267-.925.137-.638.061-1.039-.316-1.695z" fill="#2B4F02"/><path d="M51.497 21.7c-.018-.205-.052-.306-.03-.392.17-.623.402-1.222.756-1.762.103-.157.255-.313.42-.39a42.172 42.172 0 0 1 2.347-1.044c1.502-.597 3.018-1.156 4.523-1.744 1.254-.49 2.494-1.019 3.754-1.492 1.42-.535 2.85-1.046 4.288-1.532a438.123 438.123 0 0 1 6.416-2.114c1.84-.592 3.69-1.156 5.537-1.727 1.87-.578 3.743-1.148 5.615-1.721.584-.18 1.17-.358 1.755-.537.046-.014.097-.041.141-.034.09.015.212.023.255.083.045.064.03.186.014.279-.011.069-.061.133-.1.196-.273.44-.549.877-.819 1.319a.913.913 0 0 1-.556.436c-1.431.423-2.856.867-4.28 1.31-2.991.931-5.987 1.847-8.969 2.807a291.678 291.678 0 0 0-7.306 2.458c-1.339.47-2.644 1.038-3.964 1.56-2.14.846-4.286 1.68-6.42 2.542-.907.367-1.791.793-2.686 1.193l-.691.306M186.26 31.91c-.095-.23-.183-.336-.169-.427.021-.14.101-.276.175-.403.48-.833.94-1.679 1.457-2.487.262-.41.62-.76.954-1.12.24-.258.566-.377.895-.482.783-.252 1.587-.3 2.394-.207.897.104 1.79.241 2.682.385.556.09 1.095.256 1.602.513a2.5 2.5 0 0 1 .438.265c.378.304.47.602.235 1.042-.266.498-.595.962-.904 1.436-.27.413-.565.808-.82 1.229-.578.96-1.346 1.754-2.138 2.522-.746.723-1.64 1.148-2.684 1.215-.804.052-1.607.1-2.411.15-.17.01-.345.005-.51.04-.27.055-.531.034-.8-.017-.281-.054-.57-.07-.84-.1-.046-.145-.015-.219.096-.263.863-.345 1.73-.682 2.588-1.04 1.673-.697 3.319-1.456 4.902-2.344.25-.14.521-.259.741-.529-.282-.22-.582-.307-.877-.386a14.47 14.47 0 0 0-4.21-.492c-.434.015-.87.119-1.296.223a1.822 1.822 0 0 0-.974.63c-.155.187-.307.378-.525.647M15.08 30.241c.226-.305.5-.362.737-.47 1.16-.529 2.332-1.031 3.483-1.577 1.399-.662 2.715-1.476 4.013-2.32.075-.049.134-.126.21-.2-.224-.269-.511-.334-.787-.4a10.75 10.75 0 0 0-3.134-.26c-.46.027-.922.107-1.377.194a3.318 3.318 0 0 0-1.896 1.05c-.076.085-.178.146-.25.202-.202-.071-.194-.197-.17-.318.02-.095.056-.19.1-.277.426-.836.839-1.679 1.288-2.502.609-1.116 1.582-1.731 2.805-1.944 1.488-.259 2.974-.185 4.45.114.481.097.937.272 1.345.566.345.248.474.566.334.966-.114.324-.236.653-.41.946-.555.933-1.135 1.852-1.707 2.774-.5.805-1.157 1.473-1.855 2.097-.696.621-1.521 1.01-2.439 1.103-1.483.15-2.974.236-4.462.343-.063.005-.13-.039-.277-.087m89.245-12.736c-.02-.105-.058-.181-.043-.243.123-.477.237-.958.39-1.425.173-.53.497-.932.97-1.257 1.558-1.072 3.167-2.058 4.79-3.022 1.581-.94 3.146-1.906 4.731-2.838a72.564 72.564 0 0 1 6.454-3.352c1.356-.625 2.693-1.294 4.037-1.946.86-.417 1.716-.84 2.576-1.255.129-.062.268-.102.457-.173 0 .158.032.28-.006.374-.23.572-.48 1.135-.715 1.705-.082.196-.222.3-.41.39-1.216.58-2.428 1.166-3.633 1.767-2.498 1.248-5.04 2.408-7.487 3.758-1.18.651-2.337 1.345-3.495 2.036a135.286 135.286 0 0 0-3.514 2.148c-1.674 1.07-3.385 2.083-4.96 3.304-.015.013-.043.01-.142.029M65.584.742c-.074.162-.107.275-.171.366-.324.464-.671.911-.98 1.384-.16.243-.345.398-.621.476-1.2.337-2.394.7-3.597 1.027-1.486.404-2.981.767-4.436 1.29-1.495.538-3.027.975-4.52 1.517-1.633.592-3.242 1.253-4.86 1.885-.456.178-.913.352-1.365.54-.493.205-1.022.351-1.381.8-.03.039-.159.053-.193.023a.398.398 0 0 1-.126-.238.625.625 0 0 1 .072-.284c.25-.566.56-1.097.943-1.584.271-.346.65-.52 1.035-.675.885-.358 1.774-.705 2.665-1.049 2.648-1.022 5.316-1.983 8.029-2.823 1.588-.492 3.16-1.035 4.78-1.41 1.479-.343 2.923-.805 4.382-1.214.087-.024.183-.017.344-.03M160.7 44.914c.055.08.107.196.195.268.189.152.388.297.6.416.206.115.432.194.646.287.047-.091.092-.136.087-.174a1.501 1.501 0 0 0-.61-1.049c-.123-.092-.316-.12-.478-.122-.21-.003-.363.123-.44.374m-1.141 1.477c-.303.132-.395.4-.525.632-.216.388-.398.797-.636 1.17a10.737 10.737 0 0 1-1.98 2.276 12.53 12.53 0 0 1-2.416 1.668c-.975.516-1.963.998-2.986 1.415-1.473.6-2.928 1.244-4.388 1.875a4.75 4.75 0 0 1-1.19.333c-1.303.198-2.597.455-3.833.94-.143.056-.285.087-.41-.033-.092-.088.02-.272.234-.388 1.033-.562 2.128-.982 3.202-1.45 2.11-.918 4.205-1.868 6.32-2.775a40.923 40.923 0 0 0 4.203-2.101c1.518-.87 2.757-2.036 3.6-3.603.175-.326.36-.647.555-.96.222-.357.459-.704.873-.869.225-.089.291-.32.415-.5.208-.302.4-.626.654-.885.495-.505 1.071-.469 1.521.072.27.326.468.702.508 1.133.078.817.1 1.628-.32 2.382-.12.214-.199.452-.29.681-.096.24-.277.346-.52.317-.266-.03-.538-.054-.79-.137-.563-.184-1.077-.467-1.493-.908-.098-.105-.21-.196-.308-.285zm12.489 10.163c.465-.236.835-.212 1.198-.238 1.538-.11 3.068-.278 4.546-.754a21.898 21.898 0 0 0 1.52-.544c1.681-.682 3.334-1.422 4.865-2.416.431-.28.883-.528 1.328-.788.472-.275.983-.414 1.522-.502.504-.083.977.004 1.447.132.202.055.388.203.559.339.132.104.247.242.34.385.25.386.583.61 1.045.542.522-.077.995-.252 1.255-.782.217-.442.449-.878.692-1.306.064-.11.199-.178.398-.349-.02.262-.024.397-.042.53-.064.458.155.792.583.862.12.02.245.023.365.01.118-.012.233-.055.39-.094-.067-.65.25-1.184.48-1.744.03-.076.13-.124.245-.225.089.202.199.347.21.5.028.367.076.754-.006 1.104-.135.574-.352 1.13-.566 1.681-.056.145-.208.311-.347.35-.373.104-.762.18-1.148.198a1.02 1.02 0 0 1-.792-.335c-.08-.085-.17-.162-.288-.273-.139.252-.25.468-.375.677-.389.65-.974.947-1.713.96-.44.008-.817-.131-1.093-.496-.015-.02-.032-.038-.046-.058-.654-.988-1.598-1.025-2.611-.798-.482.108-.911.35-1.334.604-.904.542-1.788 1.127-2.727 1.6-1.313.66-2.658 1.275-4.086 1.63-.727.181-1.495.222-2.248.263-.356.02-.72-.113-1.08-.175-.673-.115-1.331-.32-2.022-.328-.111-.001-.222-.074-.464-.162M30.734 15.855c.251.272.285.505.237.762-.087.462-.128.937-.264 1.383-.24.785-.575 1.248-1.481 1.307-.547.036-1.008-.177-1.36-.596-.553-.656-.748-1.443-.689-2.283.055-.763.173-1.522.263-2.282.122-1.031.268-2.06.361-3.094.14-1.553-.456-2.853-1.453-3.988-.288-.328-.585-.664-.97-.812-.182.009-.184.128-.23.208-.083.145-.215.214-.37.174-.571-.148-1.124-.347-1.587-.735a.518.518 0 0 1-.204-.455c.064-.74.184-1.468.432-2.17.014-.041.065-.07.132-.139.09.03.208.052.308.107.663.369 1.333.727 1.982 1.122.979.596 1.624 1.486 2.056 2.54.14.342.241.7.366 1.048.028.08.08.153.123.232.206-.107.171-.274.169-.405-.014-.742-.04-1.483-.07-2.225-.037-.911.195-1.768.553-2.585.269-.613.89-.83 1.474-.506.445.247.841.59 1.239.918.095.078.166.27.148.394-.067.459-.079.935-.318 1.398-.143-.05-.286-.075-.401-.146-.271-.167-.52-.374-.795-.532a3.407 3.407 0 0 0-.735-.316c-.218-.063-.446.121-.48.347a1.547 1.547 0 0 0-.014.37c.136 1.473-.095 2.911-.376 4.347-.109.558-.17 1.124-.264 1.685-.15.902-.312 1.802-.466 2.704-.071.414-.152.828-.2 1.245a2.847 2.847 0 0 0 .454 1.91c.178.276.426.473.727.603.583.252 1.144-.002 1.334-.611.066-.212.11-.432.18-.643.027-.083.1-.151.189-.281m80.519 9.694c-.081-.436.121-1.148.424-1.844.251-.58.704-.988 1.14-1.478-.204-.146-.404-.113-.582-.148-.192-.038-.388-.052-.579-.095-.26-.059-.532-.1-.77-.212-.43-.201-.569-.485-.51-.96a4.46 4.46 0 0 1 .158-.723c.373-1.264.863-2.47 1.716-3.494.386-.465.83-.825 1.434-.97.59-.142 1.057.045 1.461.462.142.147.223.325.164.54-.188.69-.374 1.38-.57 2.067-.016.056-.1.091-.182.16-.09-.095-.168-.184-.253-.266-.563-.545-1.133-.616-1.795-.211-.314.192-.593.428-.774.73.013.23.183.265.31.293 1.232.274 2.47.346 3.697-.02.275-.082.541-.225.784-.382.39-.253.758-.542 1.136-.816.257-.186.519-.363.796-.455.223.1.186.26.139.394a52.94 52.94 0 0 1-.638 1.735.95.95 0 0 1-.253.35c-1.474 1.298-3.01 2.523-4.55 3.739-.634.5-1.236 1.04-1.903 1.604m39.024-3.865c.362.581 1.145 1.16 1.946 1.456.15-.425.01-.822-.118-1.208-.132-.4-.301-.805-.792-.876-.481-.069-.763.232-1.036.628m-7.417 15.15c-.212-.169-.124-.303-.031-.417.358-.438.716-.877 1.089-1.302 1.378-1.576 2.771-3.137 4.14-4.72 1.322-1.53 2.518-3.157 3.539-4.911.049-.085.085-.177.145-.303-.127-.108-.244-.226-.378-.317-.365-.25-.742-.48-1.104-.734a4.15 4.15 0 0 1-.628-.51c-.383-.398-.574-.861-.33-1.415.238-.541.467-1.087.727-1.618.235-.48.637-.816 1.08-1.087.748-.459 1.47-.22 1.793.6a4.36 4.36 0 0 1 .282 2.183c-.061.463-.153.922-.238 1.425.177.164.37.315.53.497.177.202.337.423.478.651a.82.82 0 0 1 .053.78c-.166.405-.318.816-.466 1.2-.253.025-.3-.137-.359-.264-.167-.36-.37-.685-.765-.9-.393.766-.747 1.52-1.16 2.24a25.398 25.398 0 0 1-1.316 2.056c-.484.682-1 1.344-1.545 1.977a24.383 24.383 0 0 1-1.68 1.762 31.607 31.607 0 0 1-1.893 1.64c-.628.507-1.286.977-1.963 1.487zM122.739 49.27c.095.363-.216.63-.238 1.01.309.55.78.789 1.48.63-.008-.098.015-.208-.028-.27-.178-.26-.133-.514-.017-.774.12-.27.231-.545.369-.806.062-.12.179-.209.276-.317.354.446.544.994.422 1.529a13.932 13.932 0 0 1-.586 1.908c-.156.404-.58.51-.965.586-.462.09-.868-.088-1.23-.365-.153-.117-.284-.265-.444-.416-.228.192-.255.477-.361.712-.237.519-.594.893-1.118 1.117-.475.202-.906.14-1.311-.167a.858.858 0 0 1-.113-.095c-.55-.586-1.196-.59-1.89-.327-.925.35-1.772.833-2.502 1.513-.576.535-1.15 1.073-1.728 1.606-.163.15-.336.288-.505.43-1.159.973-2.422 1.751-3.886 2.171-.68.196-1.342.442-2.048.555-.601.097-1.187.287-1.783.423-.307.07-.62.124-.909-.058-.009-.201.137-.22.238-.232 1.287-.165 2.433-.71 3.559-1.318.56-.302 1.13-.587 1.696-.878 1.849-.948 3.48-2.194 4.958-3.659.735-.728 1.516-1.399 2.438-1.885.48-.253.979-.444 1.51-.552.536-.11 1.02-.017 1.428.373.036.034.07.07.108.101.552.448 1.05.431 1.57-.052.296-.275.463-.625.611-.999.163-.41.367-.805.575-1.195.076-.143.181-.298.424-.3M15.5 14.568c-.121.47-.249.818-.292 1.177-.03.26.01.545.088.796.232.741.859 1.098 1.6.894.59-.161 1.135-.436 1.578-.88.044-.044.048-.129.073-.2-.202-.322-.53-.446-.84-.57-.747-.297-1.485-.607-2.207-1.217M13.803 2.734c.09.15.155.21.157.272.023.533.324.924.647 1.299.257.298.522.592.807.861.529.5.893 1.112 1.22 1.751a3.2 3.2 0 0 1 .331 1.428c.017 1.027-.178 2.014-.44 2.996-.126.474-.333.93-.358 1.424.197.328.492.508.797.66.372.187.76.339 1.139.51.244.112.493.218.725.351.429.247.593.642.545 1.127a4.7 4.7 0 0 1-.114.657c-.087.36-.19.717-.29 1.074-.172.621-.52 1.114-1.072 1.446-.293.177-.59.352-.895.507a1.777 1.777 0 0 1-1.216.157c-.622-.144-1.028-.56-1.203-1.176a3.383 3.383 0 0 1-.05-1.686c.292-1.307.742-2.562 1.17-3.824a9.32 9.32 0 0 0 .483-2.39c.044-.693-.125-1.322-.453-1.919-.37-.675-.847-1.269-1.379-1.82a25.418 25.418 0 0 1-.652-.702c-.386-.429-.566-.927-.439-1.503.09-.408.207-.81.326-1.211.025-.086.11-.153.214-.289zm152.215 16.645c-.485-.075-.525-.113-.507-.46.002-.024.002-.049.007-.073.263-1.473.024-2.91-.337-4.328-.28-1.099-.513-2.217-1-3.25-.688-1.462-1.55-2.8-2.694-3.946-.68-.681-1.37-1.345-2.184-1.858-.332-.209-.469-.474-.454-.857.02-.47.008-.94.026-1.41.007-.19.01-.401.258-.536.082.035.205.06.296.13.565.431 1.15.842 1.679 1.315a14.775 14.775 0 0 1 3.562 4.756c.392.832.615 1.72.862 2.598.214.759.395 1.532.52 2.311.235 1.472.252 2.952.044 4.433-.055.387-.054.781-.078 1.175m13.154-1.819c.042.02.104.03.122.064.502.929 1.274 1.618 2.014 2.338.3.291.586.597.886.888.982.949 1.366 2.143 1.392 3.479a8.621 8.621 0 0 1-.459 2.991c-.417 1.214-.866 2.417-1.3 3.625-.132.372-.27.743-.38 1.122-.229.777-.005 1.478.452 2.092.464.625 1.201.597 1.68-.014.135-.173.269-.348.407-.52.01-.012.045-.004.076-.007.143.07.106.204.077.31-.112.405-.24.804-.359 1.207-.116.396-.375.699-.66.965-.628.587-1.42.365-1.964-.183-.477-.48-.64-1.1-.655-1.761-.02-.829.185-1.622.464-2.39a88.464 88.464 0 0 1 1.335-3.452c.57-1.385.628-2.78.193-4.204-.216-.709-.681-1.25-1.185-1.762-.5-.508-1.016-1.002-1.51-1.516-.307-.319-.617-.641-.873-1-.507-.71-.394-1.607.247-2.272m-49.556-6.856c-.37-.005-.555-.184-.769-.297-.172-.091-.342-.2-.526-.256-.715-.223-1.34.234-1.345.995-.004.593 0 1.19.061 1.778.069.65-.035 1.283-.102 1.918-.06.564-.184 1.12-.293 1.678-.021.112-.102.211-.182.368-.097-.099-.18-.151-.215-.227-.05-.11-.068-.236-.095-.357a5.358 5.358 0 0 0-1.46-2.693l-1.015-1.02c-.114.092-.203.16-.29.232a.838.838 0 0 1-.825.168c-.28-.087-.57-.144-.842-.253-.505-.201-.69-.495-.64-1.03.056-.59.155-1.166.433-1.711.195-.381.327-.497.813-.287.723.31 1.41.684 1.99 1.231.85.8 1.602 1.668 1.974 2.81.014.043.056.078.091.11.016.014.046.013.108.027-.048-.523-.077-1.038-.146-1.547-.143-1.04.12-2.014.453-2.972.15-.433.507-.725.886-.96.258-.159.556-.18.853-.126.419.074.787.26 1.119.525.187.149.29.337.243.581-.086.433-.183.864-.279 1.315m-59.731 9.281l-.276.509c-.564.052-1.022-.169-1.43-.494-.285-.227-.42-.543-.32-.924.136-.52.19-1.07.495-1.512.327-.129.609-.014.884.078 1.35.454 2.516 1.18 3.43 2.31.399.494.69 1.014.791 1.643a.88.88 0 0 0 .165.423c.023-.178.069-.355.066-.532-.012-.618-.02-1.238-.066-1.854a6.81 6.81 0 0 1 .351-2.701c.37-1.104 1.79-1.472 2.648-.69.237.216.32.49.314.8a2.453 2.453 0 0 1-.027.368c-.059.339-.126.676-.189 1.01-.328.043-.464-.196-.632-.357-.324-.311-.707-.425-1.14-.41-.504.017-.715.22-.717.726-.003.47-.006.942.03 1.41.094 1.176-.107 2.32-.354 3.456a2.63 2.63 0 0 1-.472 1.048c-.192.034-.253-.083-.286-.198-.061-.213-.101-.432-.148-.65a3.524 3.524 0 0 0-.693-1.456 7.376 7.376 0 0 0-2.424-2.003M22.024 53.51c-.273.078-.48 0-.681-.085-1.196-.502-2.389-1.009-3.582-1.515a1.5 1.5 0 0 1-.197-.098c-.163-.1-.216-.247-.158-.446.028-.095.07-.184.107-.276l1.052-2.608c.103-.253.194-.518.536-.575 1.29.534 2.6 1.076 3.91 1.62.089.037.174.089.255.144.134.091.194.226.155.384-.036.142-.093.28-.147.417-.354.894-.708 1.788-1.067 2.68-.054.133-.13.256-.183.357m37.737-12.522c.082-.011.112-.025.13-.016 1.139.562 2.28 1.12 3.414 1.694.215.109.411.266.597.424.21.177.266.412.138.667-.177.351-.34.716-.555 1.043-.328.498-.55 1.04-.768 1.592-.078.197-.101.44-.324.554l-4.026-2.12c.026-.179.021-.33.07-.46.258-.693.532-1.38.793-2.07.113-.3.201-.608.317-.906.058-.151.153-.29.214-.402M197.378 5.913a4.63 4.63 0 0 0-.303 1.506c-.012.363.257.662.612.737.388.081.786.099 1.152-.076.352-.168.688-.372 1.024-.572.099-.058.213-.133.143-.355-.409-.17-.865-.34-1.305-.547-.44-.207-.863-.45-1.323-.693m.53-2.579c-.025.688.353.992.807 1.217.371.185.763.327 1.144.49.224.097.452.189.67.3.455.232.643.587.566 1.083-.072.463-.143.928-.254 1.382-.125.512-.368.962-.797 1.294-.489.379-1.004.705-1.596.884-.456.139-.912.139-1.356-.067a1.144 1.144 0 0 1-.62-.692c-.134-.383-.135-.773-.085-1.17.142-1.13.439-2.224.768-3.31.078-.26.162-.517.24-.777.07-.239.175-.449.514-.634zm12.235 51.338c-.501-.19-.968-.333-1.406-.54-.441-.208-.6-.616-.374-1.049.467-.895.92-1.81 1.723-2.468.039-.03.075-.064.11-.098.64-.604 1.42-.601 2.14.35-.283.493-.574.997-.972 1.5-.182-.154-.336-.301-.505-.426-.386-.282-.745-.301-1.09-.073-.327.217-.326.497.01.683.852.47 1.725.53 2.602.09.394-.197.765-.44 1.147-.662l.484-.28c.04.137.11.25.079.297-.37.573-.65 1.219-1.3 1.562-.812.428-1.455 1.084-2.138 1.685-.203.178-.41.353-.624.516-.067.051-.168.057-.288.095-.108-.516.52-.76.402-1.182M109.588 2.285c-.017.2-.005.296-.036.372-.224.548-.442 1.1-.691 1.637a3.991 3.991 0 0 0-.37 1.874c.024.582.195 1.11.639 1.53.415.39.832.358 1.182-.11.13-.174.197-.404.487-.481l.31.377c-.194.448-.359.887-.57 1.303-.288.567-.752.886-1.4.932a1.064 1.064 0 0 1-.866-.305c-.664-.64-.923-1.433-.889-2.343.018-.476.125-.934.306-1.369.455-1.095.963-2.166 1.615-3.159.048-.072.13-.12.283-.258m93.794 8.603c.1.406.013.762-.098 1.114-.214.683-.42 1.37-.646 2.048-.192.577-.219 1.16-.139 1.758.064.479.254.903.547 1.277.103.132.238.25.381.338.295.18.575.11.762-.18.079-.124.128-.267.2-.396.054-.099.121-.19.223-.346.05.14.096.203.089.258-.068.514-.14 1.026-.224 1.537a1.93 1.93 0 0 1-.138.422c-.316.754-1.088.915-1.658.326-.383-.395-.615-.886-.763-1.418-.254-.91-.205-1.827.056-2.711.377-1.278.829-2.532 1.254-3.795.028-.085.101-.155.154-.232m-70.91 10.205l-.187.7c-.28 1.054-.517 2.113-.467 3.218.016.355.094.684.271.989.244.417.622.485.975.155.159-.148.27-.348.409-.519.103-.125.218-.24.341-.374.122.247.074.43-.01.617-.181.405-.356.813-.533 1.22-.152.35-.392.625-.693.849-.33.244-.596.324-1.073-.018a1.36 1.36 0 0 1-.574-.917c-.052-.366-.094-.74-.071-1.107.068-1.09.26-2.159.615-3.194.243-.71.498-1.19.997-1.62m14.14-7.744l-.292.813c-.294.81-.604 1.615-.877 2.433a4.488 4.488 0 0 0-.232 1.604c.014.358.113.682.316.97.238.338.582.37.87.066.114-.12.178-.29.265-.436.088-.146.167-.3.27-.434.029-.04.143-.054.188-.028.05.03.092.121.089.183-.005.096-.046.191-.082.282-.171.436-.33.877-.524 1.302-.197.428-.45.813-.905 1.027-.31.145-.562.103-.803-.123a1.804 1.804 0 0 1-.582-1.163 4.744 4.744 0 0 1 .083-1.546c.365-1.6 1.007-3.09 1.75-4.54.086-.17.216-.315.325-.471l.14.061m-72.513 20.61c.078.356-.029.6-.128.843-.167.411-.354.815-.506 1.231a7.05 7.05 0 0 0-.31 1.062c-.082.42.002.837.186 1.22.072.152.186.29.308.407.223.214.512.177.69-.086.097-.14.153-.308.234-.46.057-.105.124-.205.174-.286.24-.047.284.114.328.247.03.089.031.199.01.291-.167.754-.406 1.475-.965 2.042-.3.305-.643.352-.976.088a1.865 1.865 0 0 1-.676-1.029c-.168-.67-.076-1.332.07-1.981.268-1.186.743-2.297 1.32-3.363.04-.072.126-.12.241-.226m62.118 7.971c-.215.434-.425.872-.648 1.301-.193.373-.402.737-.604 1.104-.238.433-.241.9-.199 1.373.005.05.01.1.025.147.085.264.187.533.486.6.311.07.494-.158.663-.374.076-.096.125-.213.193-.315.074-.11.196-.203.3-.114.067.057.089.233.056.331-.138.422-.292.84-.461 1.25-.188.457-.57.738-.97.978-.23.139-.477.05-.684-.111-.446-.35-.611-.84-.575-1.379.03-.44.117-.884.242-1.307.276-.933.76-1.768 1.307-2.563.235-.34.426-.719.869-.921M11.635 28.28c.02.422-.13.712-.218 1.011-.13.45-.297.89-.428 1.339-.16.55-.233 1.107-.11 1.681.061.28.192.505.401.687.204.179.49.181.652-.035.16-.212.262-.467.39-.703.068-.126.115-.284.314-.245.135.184.058.376.007.562-.1.356-.186.719-.324 1.06a5.578 5.578 0 0 1-.507.976c-.227.343-.517.404-.899.238-.514-.223-.798-.626-.877-1.184-.08-.573-.016-1.135.134-1.687.317-1.169.72-2.306 1.258-3.391.04-.083.103-.155.207-.309m203.643 25.136c-.02.146-.004.25-.048.316a13.4 13.4 0 0 1-.679.966c-.134.17-.304.321-.485.44-.348.229-.708.44-1.074.638-.843.455-1.657.953-2.411 1.547-.151.12-.316.22-.456.316-.198-.094-.146-.218-.092-.323.459-.9 1.106-1.626 1.98-2.13.977-.563 1.958-1.116 2.94-1.67.076-.043.172-.054.325-.1M132.44 5.705l.093.027-.055.19-.166-.054c.043-.054.085-.11.128-.163" fill="#2B4F02"/><path d="M219.918 71.145h1.787v9.117h-1.787v-9.117zm-5.69 9.117c-.039 0-.058-.02-.058-.059v-1.336c0-.031.02-.047.059-.047h1.5v-7.675h1.787v9.117h-3.287zm-6.48-1.442a4.089 4.089 0 0 1-.146-2.777c.117-.402.261-.748.433-1.037a5.135 5.135 0 0 1 1.234-.51 4.488 4.488 0 0 1 1.145-.176c.547 0 1.044.117 1.491.352.448.234.794.565 1.04.993.246.428.37.925.37 1.491 0 .438-.075.85-.223 1.237.144.156.31.266.495.33.185.065.419.097.7.097h.065c.039 0 .058.016.058.047v1.336c0 .04-.02.059-.058.059h-.065c-.422 0-.788-.06-1.099-.179a2.4 2.4 0 0 1-.881-.624 3.107 3.107 0 0 1-1.05.6c-.394.135-.8.203-1.218.203h-3.644c-.04 0-.06-.02-.06-.059v-1.336c0-.031.02-.047.06-.047h1.353zm1.336-1.4c0 .406.092.873.275 1.4h.452c.484 0 .89-.162 1.215-.486a1.6 1.6 0 0 0 .49-1.178c0-.426-.104-.764-.31-1.016a1.015 1.015 0 0 0-.827-.378c-.36 0-.733.111-1.12.334a4.925 4.925 0 0 0-.175 1.324zm-2.572 1.4c.043 0 .064.016.064.047v1.336c0 .04-.021.059-.064.059h-4.055c-.676 0-1.303-.301-1.88-.903-.45.602-1.118.903-2.005.903h-4.705c-.039 0-.058-.02-.058-.059v-1.336c0-.031.02-.047.058-.047h1.5v-3.562h1.787v3.562h1.02c.398 0 .69-.11.876-.33.185-.221.278-.574.278-1.058v-2.174h1.787v2.314c0 .196-.011.375-.035.54.195.261.39.445.586.55.195.106.447.158.756.158h.744v-4.5h1.787v4.5h1.559zm-6.217-7.465a.685.685 0 0 1-.483-.181c-.131-.121-.197-.305-.197-.551 0-.254.066-.438.197-.554a.705.705 0 0 1 .483-.173c.207 0 .373.065.498.194s.187.306.187.533a.756.756 0 0 1-.184.53.645.645 0 0 1-.501.202zm-1.02 1.934c-.246 0-.441-.077-.586-.231-.144-.155-.216-.365-.216-.63 0-.27.07-.482.214-.636.142-.154.338-.231.588-.231.25 0 .446.077.586.231.141.154.211.366.211.636 0 .265-.073.475-.22.63a.76.76 0 0 1-.577.231zm2.045 0c-.25 0-.447-.077-.591-.231-.145-.155-.217-.365-.217-.63 0-.27.071-.482.214-.636.142-.154.34-.231.594-.231.243 0 .435.076.577.228.143.152.214.365.214.639 0 .265-.073.475-.22.63a.752.752 0 0 1-.57.231zm-7.336 5.531c.04 0 .059.016.059.047v1.336c0 .04-.02.059-.059.059h-1.558v.193c0 .824-.228 1.479-.683 1.963-.455.484-1.063.727-1.825.727-.41 0-.786-.05-1.128-.147a3.892 3.892 0 0 1-1.081-.527l.72-1.166c.212.132.398.224.56.275.162.05.357.076.583.076.32 0 .578-.122.774-.366.195-.244.293-.552.293-.923V74.32h1.787v4.5h1.558zm-15.527 1.442c-.738 0-1.321-.215-1.749-.645-.428-.43-.642-1.02-.642-1.77 0-.3.036-.621.106-.963a3.63 3.63 0 0 1 .281-.87h1.582a6.896 6.896 0 0 0-.181 1.57c0 .371.103.67.31.896.207.227.48.34.82.34h3.118a2.421 2.421 0 0 1-.575-1.582c0-.894.309-1.604.926-2.13.617-.525 1.477-.788 2.578-.788h2.139v5.942h-8.713zm6.92-1.442v-3.058h-.31c-.547 0-.968.134-1.263.404-.295.27-.443.658-.443 1.166 0 .477.145.844.434 1.102.289.257.705.386 1.248.386h.334zm-.598-5.531c-.25 0-.447-.077-.591-.231-.145-.155-.217-.365-.217-.63 0-.27.071-.482.214-.636.142-.154.34-.231.594-.231.242 0 .435.076.577.228.143.152.214.365.214.639 0 .265-.073.475-.22.63a.752.752 0 0 1-.57.231zm-15.958-2.144h1.787v9.117h-1.787v-9.117zm-5.69 9.117c-.039 0-.058-.02-.058-.059v-1.336c0-.031.02-.047.058-.047h1.5v-7.675h1.787v9.117h-3.287zm.117-1.442c.04 0 .059.016.059.047v1.336c0 .04-.02.059-.059.059h-1.523c-.375 0-.766-.064-1.172-.19a4.071 4.071 0 0 1-1.049-.484c-.734.45-1.478.674-2.232.674h-1.389c-.039 0-.058-.02-.058-.059v-1.336c0-.031.02-.047.058-.047h1.201c.18 0 .378-.021.595-.064.217-.043.394-.098.53-.164-.238-.184-.49-.473-.755-.867a7.423 7.423 0 0 1-.692-1.295 6.046 6.046 0 0 1-.398-1.354 5.45 5.45 0 0 1 1.614-.923 5.051 5.051 0 0 1 1.755-.337c1.144 0 2.148.24 3.012.721 0 .867-.176 1.662-.528 2.385-.351.723-.828 1.275-1.43 1.658.297.16.659.24 1.084.24h1.377zm-3.72-.972c.937-.559 1.441-1.35 1.511-2.373-.347-.145-.798-.217-1.353-.217-.258 0-.535.045-.832.135a2.37 2.37 0 0 0-.703.322c.117.441.298.855.542 1.242.244.387.522.684.835.89zM156 78.82c.04 0 .059.016.059.047v1.336c0 .04-.02.059-.059.059h-3.287v-9.117h1.787v7.675h1.5zm-12.287 1.776c0-.524.137-.94.41-1.248.274-.309.66-.48 1.16-.516a4.227 4.227 0 0 1-.322-1.664c0-.352.06-.732.182-1.143.121-.41.266-.75.434-1.02.359-.21.757-.377 1.195-.5a4.4 4.4 0 0 1 1.178-.185c.546 0 1.043.117 1.488.349.445.232.793.564 1.043.996.25.432.375.929.375 1.491 0 .61-.142 1.149-.425 1.617a2.921 2.921 0 0 1-1.18 1.096 3.568 3.568 0 0 1-1.67.393h-1.108c-.36 0-.611.071-.756.214-.144.142-.217.38-.217.711V84.1h-1.787v-3.504zm2.907-3.176c0 .406.091.873.275 1.4h.457c.48 0 .884-.162 1.21-.486a1.6 1.6 0 0 0 .49-1.178c0-.437-.105-.78-.314-1.025a1.028 1.028 0 0 0-.824-.37c-.359 0-.732.112-1.119.335a4.925 4.925 0 0 0-.175 1.324zm-10.152-6.275h1.787v9.117h-1.787v-9.117zm-5.69 9.117c-.039 0-.058-.02-.058-.059v-1.336c0-.031.02-.047.058-.047h1.5v-7.675h1.787v9.117h-3.287zm.117-1.442c.043 0 .065.016.065.047v1.336c0 .04-.022.059-.065.059h-4.054c-.676 0-1.303-.301-1.881-.903-.45.602-1.117.903-2.004.903h-4.705c-.04 0-.059-.02-.059-.059v-1.336c0-.031.02-.047.059-.047h1.5v-3.562h1.787v3.562h1.02c.398 0 .69-.11.875-.33.186-.221.279-.574.279-1.058v-2.174h1.787v2.314c0 .196-.012.375-.035.54.195.261.39.445.586.55.195.106.447.158.755.158h.745v-4.5h1.787v4.5h1.558zm-6.216-7.465a.685.685 0 0 1-.484-.181c-.13-.121-.196-.305-.196-.551 0-.254.065-.438.196-.554a.705.705 0 0 1 .484-.173c.207 0 .373.065.498.194s.187.306.187.533a.756.756 0 0 1-.185.53.645.645 0 0 1-.5.202zm-1.02 1.934c-.246 0-.441-.077-.586-.231-.144-.155-.217-.365-.217-.63 0-.27.072-.482.214-.636.143-.154.339-.231.589-.231.25 0 .445.077.586.231.14.154.21.366.21.636 0 .265-.072.475-.219.63a.76.76 0 0 1-.577.231zm2.045 0c-.25 0-.447-.077-.592-.231-.144-.155-.217-.365-.217-.63 0-.27.072-.482.214-.636.143-.154.341-.231.595-.231.242 0 .434.076.577.228.143.152.214.365.214.639 0 .265-.073.475-.22.63a.752.752 0 0 1-.571.231zm-12.78 6.973c-.038 0-.058-.02-.058-.059v-1.336c0-.031.02-.047.059-.047h1.857v-4.5h1.787v4.5h1.805c.039 0 .058.016.058.047v1.336c0 .04-.02.059-.058.059h-5.45zm1.606 3c-.246 0-.441-.077-.586-.232-.144-.154-.217-.364-.217-.63 0-.27.072-.481.214-.635.143-.155.34-.232.59-.232.245 0 .439.076.58.229.14.152.21.365.21.638 0 .274-.072.486-.217.636a.76.76 0 0 1-.574.226zm2.04 0c-.247 0-.442-.077-.587-.232-.144-.154-.217-.364-.217-.63 0-.27.072-.481.214-.635.143-.155.34-.232.59-.232.25 0 .444.077.585.232.14.154.211.366.211.635 0 .266-.073.476-.22.63a.76.76 0 0 1-.577.232zm-3.599-3c-.554 0-1-.082-1.338-.246a2.198 2.198 0 0 1-.859-.762c-.965.246-1.642.468-2.033.665-.39.197-.69.43-.896.697-.208.268-.311.59-.311.964 0 .336.126.608.378.817.252.21.575.314.97.314.535 0 1.123-.084 1.763-.252l.2 1.307a6.972 6.972 0 0 1-2.327.41c-.82 0-1.481-.228-1.983-.683-.502-.455-.753-1.06-.753-1.813 0-.426.086-.818.258-1.175.172-.358.422-.68.75-.967.328-.287.75-.552 1.268-.794s1.22-.484 2.107-.726a13.116 13.116 0 0 1-.305-.973c-.129-.477-.321-.83-.577-1.058-.256-.228-.599-.342-1.028-.342-.524 0-1.12.183-1.787.55l-.64-1.324a5.761 5.761 0 0 1 1.337-.486 6.262 6.262 0 0 1 1.465-.182c1.59 0 2.517.772 2.783 2.315.129.718.332 1.282.61 1.69.277.408.593.612.948.612h.07c.04 0 .06.016.06.047v1.336c0 .04-.02.059-.06.059h-.07zm-4.617-6.973c-.25 0-.447-.077-.591-.231-.145-.155-.217-.365-.217-.63 0-.27.071-.482.214-.636.142-.154.34-.231.594-.231.242 0 .435.076.577.228.143.152.214.365.214.639 0 .265-.073.475-.22.63a.752.752 0 0 1-.57.231zM95.536 78.82a4.089 4.089 0 0 1-.146-2.777c.117-.402.262-.748.433-1.037a5.135 5.135 0 0 1 1.234-.51 4.488 4.488 0 0 1 1.145-.176c.547 0 1.044.117 1.492.352.447.234.793.565 1.04.993.246.428.369.925.369 1.491 0 .61-.142 1.149-.425 1.617a2.921 2.921 0 0 1-1.18 1.096 3.568 3.568 0 0 1-1.67.393h-3.645c-.04 0-.059-.02-.059-.059v-1.336c0-.031.02-.047.059-.047h1.353zm1.336-1.4c0 .406.092.873.276 1.4h.45c.485 0 .89-.162 1.217-.486a1.6 1.6 0 0 0 .489-1.178c0-.426-.104-.764-.31-1.016a1.015 1.015 0 0 0-.827-.378c-.36 0-.732.111-1.119.334a4.925 4.925 0 0 0-.176 1.324zm-9.984 2.842c-.04 0-.059-.02-.059-.059v-1.336c0-.031.02-.047.059-.047h4.846c-.317-.297-.561-.869-.733-1.716-.11-.54-.27-.917-.483-1.134-.213-.217-.532-.325-.958-.325a2.88 2.88 0 0 0-.791.105c-.246.07-.514.186-.803.346l-.539-1.319c.715-.382 1.55-.574 2.508-.574.8 0 1.424.18 1.869.54.445.359.738.95.879 1.775.207 1.191.486 1.959.838 2.302h.779c.043 0 .064.016.064.047v1.336c0 .04-.021.059-.064.059h-7.412zm-6.48-1.442a4.089 4.089 0 0 1-.147-2.777c.117-.402.262-.748.434-1.037a5.135 5.135 0 0 1 1.233-.51 4.488 4.488 0 0 1 1.145-.176c.547 0 1.044.117 1.492.352.447.234.794.565 1.04.993.246.428.369.925.369 1.491 0 .438-.074.85-.223 1.237.145.156.31.266.495.33.186.065.42.097.7.097h.065c.039 0 .059.016.059.047v1.336c0 .04-.02.059-.06.059h-.064c-.421 0-.788-.06-1.098-.179a2.403 2.403 0 0 1-.882-.624 3.107 3.107 0 0 1-1.049.6c-.394.135-.8.203-1.219.203h-3.644c-.04 0-.059-.02-.059-.059v-1.336c0-.031.02-.047.059-.047h1.353zm1.335-1.4c0 .406.092.873.276 1.4h.45c.485 0 .89-.162 1.217-.486a1.6 1.6 0 0 0 .489-1.178c0-.426-.104-.764-.31-1.016a1.015 1.015 0 0 0-.827-.378c-.36 0-.732.111-1.119.334a4.925 4.925 0 0 0-.176 1.324zm-9.949 1.4h4.008c-.164-.738-.364-1.335-.6-1.79a4.147 4.147 0 0 0-.903-1.177 4.608 4.608 0 0 0-1.339-.824l.674-1.681c1.055.422 1.904 1.074 2.549 1.957.644.882 1.117 2.054 1.418 3.515h1.576c.039 0 .059.016.059.047v1.336c0 .04-.02.059-.059.059h-7.383V78.82zm-6.706 0v-1.476c0-.582-.134-1.011-.402-1.286-.267-.276-.68-.413-1.24-.413-1.077 0-2.009.746-2.794 2.238v.937h4.436zm-7.641 1.442c-.04 0-.059-.02-.059-.059v-1.336c0-.031.02-.047.059-.047h1.412v-4.5h1.793v2.104c.73-1.48 1.814-2.22 3.252-2.22.98 0 1.72.258 2.22.775.5.518.75 1.318.75 2.4v2.883h-9.427zm.117-1.442c.04 0 .059.016.059.047v1.336c0 .04-.02.059-.059.059h-3.287v-9.117h1.787v7.675h1.5zm-8.977 1.442c-.039 0-.058-.02-.058-.059v-1.336c0-.031.02-.047.058-.047h1.5v-7.675h1.788v9.117h-3.288zm.047 0c-.554 0-1-.082-1.338-.246a2.198 2.198 0 0 1-.859-.762c-.965.246-1.642.468-2.033.665-.39.197-.69.43-.897.697-.207.268-.31.59-.31.964 0 .336.126.608.378.817.252.21.575.314.97.314.535 0 1.123-.084 1.763-.252l.2 1.307a6.972 6.972 0 0 1-2.327.41c-.82 0-1.481-.228-1.983-.683-.502-.455-.753-1.06-.753-1.813 0-.426.086-.818.258-1.175.172-.358.422-.68.75-.967.328-.287.75-.552 1.268-.794s1.22-.484 2.107-.726a12.66 12.66 0 0 1-.305-.973c-.129-.477-.321-.83-.577-1.058-.256-.228-.599-.342-1.028-.342-.524 0-1.12.183-1.788.55l-.638-1.324a5.761 5.761 0 0 1 1.336-.486 6.262 6.262 0 0 1 1.465-.182c1.59 0 2.517.772 2.783 2.315.129.718.332 1.282.61 1.69.277.408.593.612.948.612h.07c.04 0 .06.016.06.047v1.336c0 .04-.02.059-.06.059h-.07zM34.44 71.145h1.788v9.117H34.44v-9.117zm-5.689 9.117c-.04 0-.059-.02-.059-.059v-1.336c0-.031.02-.047.059-.047h1.5v-7.675h1.787v9.117H28.75zm-6.48-1.442a4.089 4.089 0 0 1-.147-2.777c.117-.402.262-.748.434-1.037a5.135 5.135 0 0 1 1.233-.51 4.488 4.488 0 0 1 1.146-.176c.546 0 1.043.117 1.49.352a2.51 2.51 0 0 1 1.04.993c.247.428.37.925.37 1.491 0 .438-.074.85-.223 1.237.145.156.31.266.495.33.186.065.42.097.7.097h.065c.04 0 .059.016.059.047v1.336c0 .04-.02.059-.059.059h-.064c-.422 0-.788-.06-1.099-.179a2.403 2.403 0 0 1-.882-.624 3.107 3.107 0 0 1-1.049.6c-.394.135-.8.203-1.218.203h-3.645c-.039 0-.059-.02-.059-.059v-1.336c0-.031.02-.047.059-.047h1.354zm1.335-1.4c0 .406.092.873.276 1.4h.451c.484 0 .89-.162 1.216-.486a1.6 1.6 0 0 0 .49-1.178c0-.426-.104-.764-.311-1.016a1.015 1.015 0 0 0-.827-.378c-.359 0-.732.111-1.119.334a4.925 4.925 0 0 0-.176 1.324zm-2.572 1.4c.04 0 .059.016.059.047v1.336c0 .04-.02.059-.059.059h-4.845c-.04 0-.06-.02-.06-.059v-1.336c0-.031.02-.047.06-.047h1.5v-4.5h1.787v4.5h1.558zm-2.467-5.531c-.25 0-.447-.077-.591-.231-.145-.155-.217-.365-.217-.63 0-.27.071-.482.214-.636.142-.154.34-.231.594-.231.243 0 .435.076.578.228.142.152.213.365.213.639 0 .265-.073.475-.22.63a.752.752 0 0 1-.57.231zm-9.673 6.973c-.04 0-.059-.02-.059-.059v-1.336c0-.031.02-.047.059-.047h4.845c-.316-.297-.56-.869-.732-1.716-.11-.54-.27-.917-.484-1.134-.212-.217-.532-.325-.958-.325-.28 0-.544.035-.79.105-.247.07-.514.186-.803.346l-.54-1.319c.715-.382 1.551-.574 2.508-.574.801 0 1.424.18 1.87.54.445.359.738.95.879 1.775.207 1.191.486 1.959.837 2.302h.78c.043 0 .064.016.064.047v1.336c0 .04-.021.059-.064.059H8.893zm2.918 3c-.25 0-.448-.077-.592-.232-.145-.154-.217-.364-.217-.63 0-.27.071-.481.214-.635.142-.155.34-.232.595-.232.242 0 .434.076.577.229.142.152.214.365.214.638 0 .266-.074.476-.22.63a.752.752 0 0 1-.571.232zM1.633 78.82H5.64c-.164-.738-.365-1.335-.601-1.79a4.147 4.147 0 0 0-.902-1.177 4.608 4.608 0 0 0-1.34-.824l.675-1.681c1.054.422 1.904 1.074 2.548 1.957.645.882 1.118 2.054 1.418 3.515h1.577c.039 0 .058.016.058.047v1.336c0 .04-.02.059-.058.059H1.633V78.82z" fill="#4A7C12"/></g></svg>