<svg width="414" height="121" viewBox="0 0 414 121" fill="none" xmlns="http://www.w3.org/2000/svg">
<g clip-path="url(#clip0_2_2)">
<path d="M123.551 24.974C130.495 24.974 136.124 19.3449 136.124 12.401C136.124 5.45712 130.495 -0.171997 123.551 -0.171997C116.607 -0.171997 110.978 5.45712 110.978 12.401C110.978 19.3449 116.607 24.974 123.551 24.974Z" fill="#2CAAE2"/>
<path d="M153.15 24.974C160.094 24.974 165.723 19.3449 165.723 12.401C165.723 5.45712 160.094 -0.171997 153.15 -0.171997C146.206 -0.171997 140.577 5.45712 140.577 12.401C140.577 19.3449 146.206 24.974 153.15 24.974Z" fill="#2CAAE2"/>
<path d="M196.666 50.071C203.61 50.071 209.239 44.4419 209.239 37.498C209.239 30.5541 203.61 24.925 196.666 24.925C189.722 24.925 184.093 30.5541 184.093 37.498C184.093 44.4419 189.722 50.071 196.666 50.071Z" fill="#2CAAE2"/>
<path d="M226.265 50.071C233.209 50.071 238.838 44.4419 238.838 37.498C238.838 30.5541 233.209 24.925 226.265 24.925C219.321 24.925 213.692 30.5541 213.692 37.498C213.692 44.4419 219.321 50.071 226.265 50.071Z" fill="#2CAAE2"/>
<path d="M374.769 42.451C353.143 42.451 335.551 60.043 335.551 81.669C335.551 84.085 335.782 86.446 336.202 88.743C330.801 88.744 324.097 88.744 316.55 88.745L321.197 58.503C322.042 52.964 318.237 47.788 312.698 46.942C307.17 46.119 301.983 49.902 301.137 55.441L296.02 88.748C293.104 88.748 290.14 88.749 287.137 88.749L291.117 63.002C291.962 57.463 288.157 52.287 282.618 51.441C277.086 50.618 271.903 54.401 271.057 59.94L266.603 88.752C263.682 88.752 260.767 88.753 257.869 88.753L260.662 70.449C261.507 64.91 257.701 59.734 252.163 58.888C246.631 58.065 241.448 61.848 240.602 67.387L237.341 88.756C231.033 88.757 225.028 88.758 219.504 88.759L222.298 70.449C223.143 64.91 219.337 59.734 213.799 58.888C208.267 58.065 203.084 61.848 202.238 67.387L198.979 88.746H169.439C172.792 83.178 174.725 76.663 174.725 69.704C174.725 49.288 158.116 32.679 137.7 32.679C117.284 32.679 100.675 49.288 100.675 69.704C100.675 76.664 102.608 83.179 105.961 88.746H79.481C79.903 86.362 80.125 83.9 80.127 81.359C80.128 79.106 80.127 76.854 80.126 74.601C80.126 74.592 80.127 74.584 80.127 74.576L80.322 9.85899C80.322 4.32099 75.832 -0.169998 70.293 -0.169998C64.754 -0.169998 60.264 4.32099 60.264 9.85899L60.266 17.274C60.266 17.332 60.266 17.389 60.266 17.447L60.281 74.825C60.275 76.991 60.268 79.174 60.26 81.396C60.211 94.648 46.337 103.835 33.858 100.305C24.822 97.748 18.877 89.128 19.716 79.798C20.579 70.204 28.123 63.003 38.151 62.202C45.206 61.638 49.385 57.477 48.943 51.458C48.51 45.564 43.572 41.935 36.612 42.396C19.121 43.554 4.732 56.04 1.025 72.931C-2.779 90.263 4.873 107.71 20.369 116.117C35.744 124.458 56.436 121.674 68.754 109.252H346.94C354.051 116.426 363.893 120.889 374.769 120.889C396.393 120.889 413.985 103.297 413.985 81.671C413.985 60.043 396.393 42.451 374.769 42.451ZM137.698 51.833C147.551 51.833 155.567 59.848 155.567 69.702C155.567 79.556 147.551 87.571 137.698 87.571C127.845 87.571 119.829 79.556 119.829 69.702C119.83 59.848 127.846 51.833 137.698 51.833ZM374.769 100.596C364.332 100.596 355.842 92.106 355.842 81.669C355.842 71.232 364.332 62.742 374.769 62.742C385.204 62.742 393.694 71.232 393.694 81.669C393.694 92.106 385.204 100.596 374.769 100.596Z" fill="#2CAAE2"/>
</g>
<defs>
<clipPath id="clip0_2_2">
<rect width="414" height="121" fill="white"/>
</clipPath>
</defs>
</svg>
