<svg id="Layer_1" data-name="Layer 1" xmlns="http://www.w3.org/2000/svg" viewBox="0 0 304 79"><defs><style>.cls-1{fill:#3db4b7;stroke:#3db4b7;stroke-miterlimit:10;stroke-width:0.6px;}</style></defs><title>souq fann branding</title><path class="cls-1" d="M50.22,60.74H36.77a18.31,18.31,0,0,1-6.43,10.87,18.17,18.17,0,0,1-12,4.35A18.07,18.07,0,0,1,5.09,70.47,18.13,18.13,0,0,1-.4,57.19V36.76A1,1,0,0,1,.74,35.62H4.8a1,1,0,0,1,1.14,1.14V57.19A11.94,11.94,0,0,0,9.58,66a11.9,11.9,0,0,0,8.75,3.64A11.94,11.94,0,0,0,27.09,66a11.9,11.9,0,0,0,3.68-8.79V20.52c0-.79.38-1.19,1.14-1.19h4a1.05,1.05,0,0,1,1.18,1.19V54.39H50.22ZM15,16.54a1,1,0,0,1-1.14-1.14V10.33A1,1,0,0,1,15,9.18H19.3a1,1,0,0,1,1.19,1.15V15.4c0,.76-.4,1.14-1.19,1.14Z"/><path class="cls-1" d="M79.44,17.64a17.67,17.67,0,0,1,13,5.37,17.65,17.65,0,0,1,5.37,13V57.57a3.06,3.06,0,0,1-.93,2.24,3.2,3.2,0,0,1-2.29.93H46.84V54.39H65.61a17.75,17.75,0,0,1-4.44-12V36A17.65,17.65,0,0,1,66.54,23,17.53,17.53,0,0,1,79.44,17.64ZM91.41,36A12,12,0,0,0,71,27.5,11.53,11.53,0,0,0,67.52,36v6.47a12,12,0,0,0,11.92,12h12ZM76.27,9.1A1,1,0,0,1,75.13,8V2.84A1,1,0,0,1,76.27,1.7H80.5c.79,0,1.19.38,1.19,1.14V8c0,.76-.4,1.14-1.19,1.14Z"/><path class="cls-1" d="M159.57,17.64A17.63,17.63,0,0,1,172.51,23a17.59,17.59,0,0,1,5.37,12.9V61.2A17.33,17.33,0,0,1,160.8,78.29H143a18.78,18.78,0,0,1-18.78-18.78V46a1,1,0,0,1,1.15-1.18h4.06c.76,0,1.14.39,1.14,1.18V59.51A12.41,12.41,0,0,0,143,72H160.8a10.29,10.29,0,0,0,7.53-3.18,10.43,10.43,0,0,0,3.17-7.57v-.46H159.57a18.33,18.33,0,0,1-18.31-18.31V35.91A17.59,17.59,0,0,1,146.63,23,17.63,17.63,0,0,1,159.57,17.64ZM171.5,35.91a11.93,11.93,0,0,0-23.85,0v6.52a11.52,11.52,0,0,0,3.51,8.45,11.37,11.37,0,0,0,8.41,3.51H171.5ZM151.37,9.1A1,1,0,0,1,150.23,8V3.26a1,1,0,0,1,1.14-1.14h4.27a1,1,0,0,1,1.14,1.14V8a1,1,0,0,1-1.14,1.14Zm11.54,0A1,1,0,0,1,161.77,8V3.26a1,1,0,0,1,1.14-1.14h4.27c.79,0,1.19.38,1.19,1.14V8c0,.76-.4,1.14-1.19,1.14Z"/><path class="cls-1" d="M240.27,54.39v6.35H227.16v1a16.38,16.38,0,0,1-5.08,12,16.26,16.26,0,0,1-12,5.08h-9a1,1,0,0,1-1.1-1.14V73.59a1,1,0,0,1,1.1-1.14h9a10.28,10.28,0,0,0,7.53-3.17,10.39,10.39,0,0,0,3.17-7.53v-1H208.88a18.27,18.27,0,0,1-18.31-18.27V36a18.35,18.35,0,0,1,18.31-18.28,17.6,17.6,0,0,1,12.9,5.38A17.5,17.5,0,0,1,227.16,36V54.39ZM220.81,36A12,12,0,0,0,208.88,24a11.52,11.52,0,0,0-8.45,3.51A11.39,11.39,0,0,0,196.92,36v6.51a12,12,0,0,0,12,11.92h11.93Z"/><path class="cls-1" d="M302.82,19.33A1,1,0,0,1,304,20.48V49.7a10.93,10.93,0,0,1-3,8.08,11.17,11.17,0,0,1-8.12,3h-4.32q-6.26,0-9.51-3.22l-.13-.12a1.49,1.49,0,0,1-.29.38,10.93,10.93,0,0,1-8,3h-4.35q-6.31,0-9.56-3.22l0,0s-.05,0-.05-.08a2.43,2.43,0,0,0-.29.38,11,11,0,0,1-8,3h-11V54.39h11a.36.36,0,0,0,.13,0,4.93,4.93,0,0,0,3.34-1.15A4.8,4.8,0,0,0,253,49.74V20.48a1,1,0,0,1,1.14-1.15h4a1,1,0,0,1,1.14,1.15V50.84a3,3,0,0,0,.76,2.2q1.26,1.32,5.12,1.35h5.54a4.64,4.64,0,0,0,3.42-1.14,4.82,4.82,0,0,0,1.19-3.55V22.8c0-.76.36-1.14,1.1-1.14h4.06a1,1,0,0,1,1.14,1.14v28a3,3,0,0,0,.76,2.2c.84.88,2.54,1.33,5.07,1.35h5.46a4.08,4.08,0,0,0,4.69-4.69V20.48a1,1,0,0,1,1.19-1.15Z"/></svg>