<svg width="213" height="32" viewBox="0 0 213 32" fill="none" xmlns="http://www.w3.org/2000/svg">
<path d="M144.294 23.7713V7.57659H137.448V5.4856H153.833V7.57659H146.865V23.7713H144.294Z" fill="black"/>
<path d="M163.461 20.8498C163.444 20.987 163.46 21.1261 163.507 21.2566C163.553 21.3871 163.63 21.5057 163.73 21.6034C163.831 21.7011 163.952 21.7755 164.087 21.8208C164.221 21.8662 164.364 21.8814 164.505 21.8654C164.911 21.8582 165.31 21.7551 165.667 21.565V22.906C165.403 23.1729 165.083 23.3806 164.729 23.5146C164.375 23.6487 163.995 23.7058 163.615 23.682C162.237 23.682 161.259 22.6664 161.104 21.118C160.369 22.6378 158.472 23.7714 156.299 23.7714C153.696 23.7714 152.013 22.3982 152.013 20.1667C152.013 17.6956 154.185 16.68 157.399 16.0578L161.012 15.3426V14.8348C161.012 13.0467 159.943 11.9453 158.071 11.9453C156.141 11.9453 155.101 13.0467 154.704 14.5666L152.439 14.2876C152.961 11.8452 154.95 10.0571 158.104 10.0571C161.472 10.0571 163.461 11.7272 163.461 15.0315V20.8498ZM161.012 16.9804L158.012 17.6062C155.899 18.0533 154.553 18.4395 154.553 20.0165C154.553 21.118 155.318 21.9548 156.851 21.9548C159.207 21.9548 161.012 20.2239 161.012 17.6062V16.9804Z" fill="black"/>
<path d="M169.308 5.4856V23.7713H166.577V5.4856H169.308Z" fill="black"/>
<path d="M183.818 19.0393C183.168 21.9857 181.01 23.7714 177.782 23.7714C173.937 23.7714 171.128 21.1536 171.128 17.1071C171.128 13.0036 173.937 10.0571 177.661 10.0571C181.773 10.0571 183.872 13.0036 183.872 16.5428V17.5143H173.574C173.692 20.0428 175.495 21.825 177.803 21.825C179.962 21.825 181.233 20.7857 181.766 18.7928L183.818 19.0393ZM181.365 15.9178C181.276 13.8357 180.122 11.9321 177.668 11.9321C175.332 11.9321 173.944 13.775 173.649 15.9178H181.365Z" fill="black"/>
<path d="M188.223 23.7714H185.692V10.4238H188.223V12.8073C188.864 11.1865 190.666 10.0571 192.647 10.0571C196.123 10.0571 197.526 12.3783 197.526 15.4952V23.7714H194.995V15.7042C194.995 13.4747 193.929 12.0703 191.823 12.0703C189.809 12.0703 188.223 13.658 188.223 16.1039V23.7714Z" fill="black"/>
<path d="M200.337 12.538H198.436V11.2381L199.243 11.096C200.424 10.8638 200.684 10.2849 200.975 9.07511L201.349 7.31421H202.703V10.8048H206.254V12.538H202.703V20.1882C202.703 21.3148 203.164 21.8348 204.262 21.8348C205.101 21.7846 205.914 21.5261 206.628 21.0826V22.6979C205.711 23.4258 204.566 23.8053 203.396 23.769C201.609 23.769 200.337 22.9301 200.337 20.4759V12.538Z" fill="black"/>
<path d="M16.7859 12.4781C17.9661 12.7036 18.8028 13.2123 19.2961 14.0041C19.7895 14.7959 20.0326 16.0412 20.0255 17.74C20.0255 21.116 19.027 23.8753 17.0302 26.0179C15.0333 28.1606 12.4805 29.2403 9.3719 29.2571C8.15272 29.2589 6.9438 29.0307 5.80654 28.5841C4.702 28.1654 3.69086 27.5267 2.83246 26.7054C1.95818 25.914 1.23762 24.963 0.708115 23.9017C0.245258 22.9631 0.00286747 21.9283 0 20.8784C0 19.7267 0.243119 18.8365 0.729358 18.2079C1.32713 17.5155 2.14568 17.0594 3.04135 16.9194C2.87325 16.5322 2.72668 16.1356 2.60232 15.7317C2.5245 15.4918 2.47807 15.2425 2.46424 14.9903C2.46424 14.3856 2.77699 13.769 3.40249 13.1403C4.01855 12.5105 4.60983 12.1974 5.16216 12.1974C5.41749 12.2004 5.67077 12.2441 5.91276 12.3269C6.2301 12.4381 6.53508 12.5829 6.82269 12.7588C5.81008 9.84115 5.07246 7.58811 4.60983 5.99971C4.14955 4.4125 3.90171 3.31478 3.90171 2.71373C3.90171 1.88233 4.0398 1.24889 4.45404 0.752213C4.9568 0.143964 5.71095 0 6.43677 0C7.90256 0 8.42303 1.27768 10.9545 8.4399C11.3086 9.40086 11.5352 10.1459 11.7087 10.6678C11.8538 10.2539 12.0627 9.6636 12.3212 8.90059C14.2189 3.32917 15.0262 0.543464 17.2214 0.543464C17.5238 0.530471 17.8252 0.586063 18.1039 0.70621C18.3825 0.826356 18.6313 1.00804 18.8323 1.23809C19.2536 1.75926 19.4683 2.42157 19.4342 3.09523C19.4342 3.68548 19.2147 4.76162 18.7721 6.33443C18.3296 7.90724 17.6816 9.94433 16.7859 12.4781ZM2.62357 20.6733C2.80768 20.9036 3.0626 21.2383 3.39187 21.6774C4.26285 22.8987 5.06656 23.5082 5.803 23.5058C6.04818 23.5084 6.28641 23.423 6.47571 23.2646C6.55982 23.2101 6.63041 23.1366 6.682 23.0499C6.73359 22.9631 6.76477 22.8654 6.77312 22.7643C6.71583 22.4039 6.58038 22.0609 6.37658 21.7602C6.0548 21.2036 5.69141 20.673 5.28962 20.173C4.89814 19.637 4.46224 19.1361 3.98669 18.6758C3.76603 18.4285 3.4709 18.2627 3.14757 18.2043C2.89216 18.2201 2.64392 18.2963 2.42263 18.4269C2.20134 18.5575 2.01311 18.7389 1.87296 18.9565C1.48229 19.4629 1.2759 20.091 1.28877 20.7345C1.30616 21.3685 1.44444 21.9931 1.69593 22.5736C1.9957 23.3033 2.3911 23.9886 2.87141 24.6107C3.62785 25.6517 4.62174 26.4903 5.7676 27.0545C6.96108 27.6329 8.26935 27.9247 9.59142 27.9075C10.8138 27.9313 12.0264 27.6819 13.1436 27.1769C14.2607 26.6719 15.2551 25.9236 16.0565 24.985C17.7914 23.0343 18.6576 20.5929 18.6553 17.6608C18.6746 16.9357 18.6092 16.2108 18.4606 15.5013C18.3691 15.0547 18.1336 14.6519 17.7914 14.3568C17.2532 13.8985 16.2029 13.4894 14.6403 13.1295C13.0343 12.7635 11.3931 12.5812 9.7472 12.5861C9.39524 12.5544 9.04262 12.639 8.74168 12.8272C8.63351 12.9324 8.55048 13.0614 8.49892 13.2042C8.44737 13.3471 8.42868 13.5001 8.44427 13.6514C8.44427 14.5632 8.94467 15.223 9.94547 15.6309C10.9463 16.0388 12.5667 16.2428 14.8067 16.2428H15.6175C15.7029 16.2407 15.7877 16.2587 15.8651 16.2956C15.9425 16.3324 16.0105 16.387 16.0636 16.4551C16.192 16.6426 16.2701 16.861 16.2902 17.0886C15.8716 17.4055 15.4036 17.6488 14.9058 17.8084C14.3421 18.0145 13.8048 18.2888 13.3055 18.6254C12.5378 19.1881 11.8889 19.9016 11.3971 20.7237C10.9599 21.4106 10.7151 22.2057 10.689 23.0235C10.7066 23.5692 10.8094 24.1086 10.9935 24.6215C11.1367 24.9942 11.24 25.3816 11.3015 25.7768V25.9172L11.2626 26.0971C10.9631 26.0673 10.6772 25.9555 10.4353 25.7736C10.1934 25.5917 10.0045 25.3465 9.88883 25.0642C9.51816 24.2503 9.34455 23.3581 9.38252 22.462V22.2785C9.29381 22.3638 9.19065 22.432 9.07803 22.48C8.97419 22.521 8.86369 22.5417 8.7523 22.5412C8.63368 22.5422 8.5152 22.5326 8.39824 22.5124C8.29203 22.4908 8.17165 22.462 8.04419 22.4224C8.08313 22.5642 8.11271 22.7085 8.1327 22.8543C8.15122 22.9638 8.16187 23.0744 8.16456 23.1854C8.16569 23.4274 8.11496 23.6667 8.01591 23.8867C7.91686 24.1068 7.77186 24.3022 7.59099 24.4595C7.2216 24.8098 6.73295 25.0007 6.22787 24.9922C5.39702 24.9922 4.55318 24.5807 3.69636 23.7577C2.83954 22.9347 2.41113 22.1273 2.41113 21.3355C2.40982 21.203 2.4265 21.071 2.4607 20.9432C2.4977 20.841 2.55702 20.7488 2.63419 20.6733H2.62357ZM8.55049 21.1555C8.6687 21.1529 8.78488 21.1238 8.89076 21.0703C8.99663 21.0168 9.08959 20.9402 9.16301 20.846C9.33819 20.6668 9.43841 20.4256 9.44271 20.173C9.33939 19.5584 9.15602 18.9605 8.89746 18.395C8.52986 17.4434 8.08209 16.5258 7.55913 15.6525C7.24637 15.0898 6.85255 14.5779 6.39074 14.1337C6.09893 13.8386 5.71114 13.6619 5.30024 13.637C5.11959 13.6567 4.94458 13.7127 4.78535 13.8017C4.62612 13.8906 4.48583 14.0108 4.37261 14.1553C4.08931 14.4104 3.9121 14.7656 3.87693 15.1486C3.93908 15.659 4.1081 16.1499 4.37261 16.5883C4.75281 17.311 5.19597 17.9975 5.69678 18.6398C6.17501 19.3144 6.72475 19.9336 7.33607 20.4861C7.84946 20.936 8.26724 21.1555 8.56111 21.1555H8.55049ZM10.4872 11.438L8.36284 5.16832C8.02506 4.0908 7.59501 3.04545 7.07761 2.04429C6.77312 1.55841 6.44385 1.32447 6.08979 1.32447C5.96083 1.32067 5.83279 1.34767 5.71596 1.4033C5.59913 1.45894 5.49676 1.54165 5.41708 1.64479C5.23406 1.89306 5.14259 2.19876 5.15862 2.50858C5.15862 3.12282 5.39466 4.19416 5.86673 5.72258C6.33881 7.251 7.0304 9.2533 7.94151 11.7295C8.01703 11.5847 8.14345 11.4742 8.29557 11.42C8.4852 11.3519 8.68591 11.3213 8.88684 11.33L9.36128 11.348C9.57017 11.366 9.95964 11.3984 10.4978 11.4524L10.4872 11.438ZM12.7213 17.5276C12.181 17.5017 11.6429 17.4404 11.1103 17.3441C10.616 17.254 10.1303 17.1203 9.65869 16.9446C9.86758 17.3729 10.0588 17.8012 10.2216 18.2295C10.3829 18.6428 10.5189 19.0659 10.6288 19.4964C10.9344 19.1125 11.2669 18.7517 11.6237 18.4166C11.9681 18.0937 12.3388 17.8012 12.7319 17.542L12.7213 17.5276ZM15.3519 12.129C16.2324 9.69359 16.9204 7.68049 17.4161 6.08969C17.9118 4.50248 18.1561 3.53072 18.1561 3.16721C18.176 2.84682 18.09 2.52885 17.9118 2.26384C17.831 2.15919 17.7269 2.07556 17.6081 2.01986C17.4893 1.96417 17.3592 1.938 17.2284 1.94352C16.8744 1.94352 16.4849 2.25304 16.1025 2.87568C15.578 3.82928 15.1543 4.83664 14.8385 5.88094L12.87 11.6935L15.3519 12.129Z" fill="black"/>
<path d="M38.8781 5.4856L46.423 23.7713H42.517L40.6676 19.2529H32.7993L31.0098 23.7713H27.3076L34.7963 5.4856H38.8781ZM33.8997 16.4723H39.525L36.7616 9.62169H36.6456L33.8997 16.4723Z" fill="black"/>
<path d="M50.9278 23.7533H47.333V10.4193H50.9278V12.5921C51.5857 11.0784 53.268 10.0571 55.2416 10.0571C58.7861 10.0571 60.0766 12.4799 60.0766 15.4422V23.7714H56.4998V16.1664C56.4998 14.1095 55.6873 12.9325 53.9151 12.9325C52.0853 12.9325 50.9458 14.3811 50.9458 16.6227L50.9278 23.7533Z" fill="black"/>
<path d="M67.9598 19.592C66.9836 19.6128 66.0119 19.4528 65.0944 19.12C64.9313 19.217 64.7965 19.3549 64.7034 19.5199C64.6103 19.6849 64.5622 19.8712 64.5638 20.0604C64.5638 20.6487 64.9458 21.0326 65.9222 21.0326H71.1224C74.0161 21.0326 75.4948 22.593 75.4948 24.6782C75.4948 27.9151 71.7132 29.2571 67.6662 29.2571C64.0614 29.2571 60.9873 28.3449 60.9873 25.9356C60.9873 24.6112 62.0486 23.6708 63.5874 23.47C63.0674 23.3232 62.61 23.011 62.2848 22.581C61.9597 22.1511 61.7848 21.6271 61.7868 21.0889C61.7868 19.9125 62.6146 19.0284 63.8846 18.5282C63.327 18.17 62.8693 17.6775 62.554 17.0962C62.2386 16.515 62.0757 15.8638 62.0804 15.2032C62.0804 12.4382 64.5319 10.7616 67.9598 10.7616C69.4226 10.7242 70.863 11.1241 72.0952 11.9099C72.4882 11.356 73.0049 10.9004 73.6046 10.5789C74.2043 10.2574 74.8707 10.0788 75.5514 10.0571V12.875C74.7899 12.8743 74.033 12.9932 73.3086 13.2272C73.6777 13.8179 73.8715 14.5005 73.8675 15.1962C73.8534 17.9154 71.3736 19.592 67.9598 19.592ZM67.6662 27.1226C70.2663 27.1226 72.1554 26.5344 72.1554 25.2699C72.1554 24.414 71.4479 24.0899 70.2663 24.0899H65.908C64.9635 24.0899 64.1959 24.4739 64.1959 25.4143C64.1959 26.5908 65.5543 27.1226 67.6521 27.1226H67.6662ZM67.9917 12.9137C66.6615 12.9137 65.7453 13.7097 65.7453 15.2067C65.7453 16.7037 66.6615 17.5032 67.9917 17.5032C69.3218 17.5032 70.2663 16.7072 70.2663 15.2067C70.2663 13.7062 69.3359 12.9137 67.9775 12.9137H67.9917Z" fill="black"/>
<path d="M89.1146 19.1859C88.4155 22.0712 86.1034 23.7714 82.67 23.7714C78.5338 23.7714 75.5518 21.207 75.5518 17.1118C75.5518 13.0166 78.5629 10.0571 82.5789 10.0571C86.9482 10.0571 89.2056 13.006 89.2056 16.5404V17.8067H79.1564C79.1999 18.7052 79.6058 19.5513 80.2867 20.1629C80.9677 20.7744 81.8693 21.1025 82.7974 21.0765C84.5924 21.0765 85.6556 20.3393 86.1726 18.8649L89.1146 19.1859ZM85.6483 15.6197C85.5282 14.1171 84.5851 12.6744 82.5462 12.6744C80.5072 12.6744 79.535 14.0007 79.2037 15.6197H85.6483Z" fill="black"/>
<path d="M93.7563 5.4856V23.7713H90.1152V5.4856H93.7563Z" fill="black"/>
<path d="M99.943 5.4856V20.7584H106.5V23.7713H96.4873V5.4856H99.943Z" fill="black"/>
<path d="M107.41 5.4856H111.051V8.88136H107.41V5.4856ZM111.023 10.9737V23.7713H107.478V10.9876L111.023 10.9737Z" fill="black"/>
<path d="M115.917 18.9834C116.124 20.5441 117.3 21.3421 119.084 21.3421C120.38 21.3421 121.436 20.9007 121.436 19.9544C121.436 19.0717 120.848 18.6868 119.556 18.482L117.497 18.1289C114.734 17.684 113.206 16.653 113.206 14.2449C113.206 11.7732 115.294 10.0571 118.585 10.0571C122.171 10.0571 124.318 11.6814 124.568 14.5697L121.657 14.6862C121.421 13.2138 120.422 12.4758 118.571 12.4758C117.307 12.4758 116.483 13.0373 116.483 13.92C116.483 14.6262 116.955 15.0429 117.891 15.1876L120.355 15.6008C123.09 16.0457 124.705 17.1932 124.705 19.6437C124.705 22.2955 122.414 23.7714 119.074 23.7714C115.734 23.7714 113.108 22.2955 112.872 19.1105L115.917 18.9834Z" fill="black"/>
<path d="M126.554 13.2061H124.705V11.1736L125.588 11.0297C126.85 10.8309 127.201 10.2002 127.493 9.02797L127.905 7.31421H130.049V10.8034H133.565V13.2027H130.049V19.4442C130.049 20.5308 130.548 21.0175 131.607 21.0175C132.376 20.9715 133.126 20.7671 133.808 20.4177V22.6764C132.78 23.4349 131.513 23.8204 130.225 23.7664C128.228 23.7664 126.554 22.906 126.554 20.2154V13.2061Z" fill="black"/>
</svg>
