<svg width="123" height="37" viewBox="0 0 123 37" fill="none" xmlns="http://www.w3.org/2000/svg">
<path d="M45.4235 8.30323C42.3991 5.27881 37.5213 5.2487 34.5287 8.24132C31.5361 11.2339 31.5662 16.1117 34.5906 19.1361C37.615 22.1606 42.4928 22.1907 45.4854 19.1981L43.7043 17.4169C41.6915 19.4296 38.4036 19.4093 36.3605 17.3662C34.3174 15.3231 34.2971 12.0352 36.3098 10.0225C38.3226 8.00973 41.6105 8.03003 43.6536 10.0731L45.4235 8.30323Z" fill="#454A4D"/>
<path d="M54.4989 21.3796C50.2217 21.3796 46.7513 17.9518 46.7513 13.7196C46.7513 9.48738 50.2217 6.05957 54.4989 6.05957C58.7761 6.05957 62.2465 9.48738 62.2465 13.7196C62.2465 17.9518 58.7761 21.3796 54.4989 21.3796ZM54.4989 18.8766C57.3883 18.8766 59.7276 16.566 59.7276 13.7196C59.7276 10.8732 57.3883 8.5626 54.4989 8.5626C51.6095 8.5626 49.2703 10.8732 49.2703 13.7196C49.2703 16.566 51.6095 18.8766 54.4989 18.8766Z" fill="#454A4D"/>
<path d="M71.6216 21.3796C67.3444 21.3796 63.874 17.9518 63.874 13.7196C63.874 9.48738 67.3444 6.05957 71.6216 6.05957C75.8988 6.05957 79.3692 9.48738 79.3692 13.7196C79.3692 17.9518 75.8988 21.3796 71.6216 21.3796ZM71.6216 18.8766C74.511 18.8766 76.8503 16.566 76.8503 13.7196C76.8503 10.8732 74.511 8.5626 71.6216 8.5626C68.7322 8.5626 66.3929 10.8732 66.3929 13.7196C66.3929 16.566 68.7322 18.8766 71.6216 18.8766Z" fill="#454A4D"/>
<path d="M79.3583 21.3797V1.37866H76.8394V19.5797C76.8394 20.5738 77.6452 21.3797 78.6394 21.3797H79.3583Z" fill="#454A4D"/>
<path d="M103.921 18.8767C102.478 18.8767 101.309 17.7144 101.309 16.2807V1.37866H98.7899V16.2807C98.7899 19.0968 101.087 21.3797 103.921 21.3797H105.181V18.8767H103.921Z" fill="#454A4D"/>
<path d="M89.0686 21.3796C84.7914 21.3796 81.321 17.9518 81.321 13.7196C81.321 9.48738 84.7914 6.05957 89.0686 6.05957C93.3458 6.05957 96.8162 9.48738 96.8162 13.7196C96.8162 17.9518 93.3458 21.3796 89.0686 21.3796ZM89.0686 18.8766C91.958 18.8766 94.2973 16.566 94.2973 13.7196C94.2973 10.8732 91.958 8.5626 89.0686 8.5626C86.1792 8.5626 83.84 10.8732 83.84 13.7196C83.84 16.566 86.1792 18.8766 89.0686 18.8766Z" fill="#454A4D"/>
<path d="M114.108 21.3796C109.831 21.3796 106.36 17.9518 106.36 13.7196C106.36 9.48738 109.831 6.05957 114.108 6.05957C118.385 6.05957 121.856 9.48738 121.856 13.7196C121.856 17.9518 118.385 21.3796 114.108 21.3796ZM114.108 18.8766C116.997 18.8766 119.337 16.566 119.337 13.7196C119.337 10.8732 116.997 8.5626 114.108 8.5626C111.219 8.5626 108.879 10.8732 108.879 13.7196C108.879 16.566 111.219 18.8766 114.108 18.8766Z" fill="#454A4D"/>
<path d="M121.856 21.3796V13.5251H119.337V19.5796C119.337 20.5737 120.143 21.3796 121.137 21.3796H121.856Z" fill="#454A4D"/>
<path d="M105.123 6.92114H98.8259V9.42417H103.323C104.317 9.42417 105.123 8.61829 105.123 7.62417V6.92114Z" fill="#454A4D"/>
<mask id="mask0" mask-type="alpha" maskUnits="userSpaceOnUse" x="0" y="0" width="25" height="26">
<path d="M18.8448 0.774902H6.21499C2.93442 0.774902 0.274986 3.43433 0.274986 6.7149V23.7997C0.274986 24.6198 0.939844 25.2847 1.75999 25.2847H18.8448C22.1254 25.2847 24.7848 22.6253 24.7848 19.3447V6.7149C24.7848 3.43433 22.1254 0.774902 18.8448 0.774902Z" fill="white"/>
</mask>
<g mask="url(#mask0)">
<path d="M18.8448 0.774902H6.21499C2.93442 0.774902 0.274986 3.43433 0.274986 6.7149V23.7997C0.274986 24.6198 0.939844 25.2847 1.75999 25.2847H18.8448C22.1254 25.2847 24.7848 22.6253 24.7848 19.3447V6.7149C24.7848 3.43433 22.1254 0.774902 18.8448 0.774902Z" fill="#2DD7A6"/>
<path d="M14.9394 17.8976H11.9978C11.2534 17.8976 10.65 18.4785 10.65 19.1951C10.65 19.9117 11.2534 20.4927 11.9978 20.4927H14.9394C15.6838 20.4927 16.2872 19.9117 16.2872 19.1951C16.2872 18.4785 15.6838 17.8976 14.9394 17.8976Z" fill="url(#paint0_linear)"/>
<path d="M18.6558 17.8259C19.3922 17.8259 19.9892 18.4229 19.9892 19.1593C19.9892 19.8956 19.3922 20.4926 18.6558 20.4926C17.9195 20.4926 17.3225 19.8956 17.3225 19.1593C17.3225 18.4229 17.9195 17.8259 18.6558 17.8259V17.8259Z" fill="white"/>
<path d="M10.62 11.1344L6.11367 15.6408C5.5873 16.1672 5.57138 17.0046 6.0781 17.5113C6.58482 18.0181 7.4223 18.0021 7.94866 17.4758L12.455 12.9694C12.9814 12.4431 12.9973 11.6056 12.4906 11.0989C11.9839 10.5921 11.1464 10.6081 10.62 11.1344Z" fill="url(#paint1_linear)"/>
<path d="M7.89764 6.51678L12.5772 11.1964C13.0333 11.6524 13.0333 12.3918 12.5772 12.8478L11.5164 13.9087L6.01105 8.40337C5.49009 7.8824 5.49009 7.03775 6.01105 6.51678C6.53202 5.99581 7.37667 5.99581 7.89764 6.51678Z" fill="white"/>
</g>
<path d="M56.3258 36H57.4058V32.256C57.4058 31.212 58.1978 30.612 58.9778 30.612C59.9138 30.612 60.2858 31.272 60.2858 32.148V36H61.3658V31.86C61.3658 30.528 60.6098 29.604 59.2778 29.604C58.3898 29.604 57.7658 30.06 57.4058 30.576V29.724H56.3258V36Z" fill="#454A4D"/>
<path d="M68.4992 32.868C68.4992 30.924 67.2992 29.604 65.5832 29.604C63.8672 29.604 62.6672 30.924 62.6672 32.868C62.6672 34.812 63.8672 36.132 65.5832 36.132C67.2992 36.132 68.4992 34.812 68.4992 32.868ZM63.7592 32.868C63.7592 31.428 64.4792 30.516 65.5832 30.516C66.6872 30.516 67.4072 31.428 67.4072 32.868C67.4072 34.296 66.6872 35.208 65.5832 35.208C64.4792 35.208 63.7592 34.296 63.7592 32.868Z" fill="#454A4D"/>
<path d="M72.7435 29.724L71.4475 34.392L70.1275 29.724H69.0115L70.9195 36H71.8675L73.1755 31.344L74.4835 36H75.4315L77.3395 29.724H76.2595L74.9515 34.404L73.6555 29.724H72.7435Z" fill="#454A4D"/>
<path d="M87.2115 28.392V27.384H80.2275V28.392H83.1435V36H84.2955V28.392H87.2115Z" fill="#454A4D"/>
<path d="M88.6947 36.108C89.5467 36.108 90.2427 35.784 90.6267 35.292C90.7587 35.892 91.3107 36.12 92.2707 36V35.136C91.8507 35.232 91.5987 35.1 91.5987 34.692V31.632C91.5987 30.288 90.7347 29.604 89.3307 29.604C88.0467 29.604 87.1227 30.336 86.8227 31.356L87.8427 31.62C88.0347 30.924 88.5027 30.552 89.2947 30.552C90.1347 30.552 90.5307 30.96 90.5307 31.68V31.944L89.0067 32.256C87.6027 32.544 86.6307 33.06 86.6307 34.308C86.6307 35.436 87.5547 36.108 88.6947 36.108ZM90.5307 33.864C90.5307 34.668 89.7507 35.232 88.8267 35.232C88.1427 35.232 87.6987 34.872 87.6987 34.26C87.6987 33.504 88.3467 33.24 89.3067 33.048L90.5307 32.784V33.864Z" fill="#454A4D"/>
<path d="M96.4631 36.132C98.2031 36.132 99.1991 34.644 99.1991 32.868C99.1991 31.08 98.2031 29.604 96.4631 29.604C95.5871 29.604 94.8911 30.024 94.5191 30.636V27.384H93.4391V36H94.5191V35.088C94.8911 35.712 95.5871 36.132 96.4631 36.132ZM94.4951 32.652C94.4951 31.188 95.3831 30.552 96.2711 30.552C97.4471 30.552 98.1071 31.512 98.1071 32.868C98.1071 34.212 97.4471 35.184 96.2711 35.184C95.3831 35.184 94.4951 34.536 94.4951 33.096V32.652Z" fill="#454A4D"/>
<path d="M100.564 36H101.644V32.256C101.644 31.212 102.436 30.612 103.216 30.612C104.152 30.612 104.524 31.272 104.524 32.148V36H105.604V31.86C105.604 30.528 104.848 29.604 103.516 29.604C102.628 29.604 102.004 30.06 101.644 30.576V29.724H100.564V36Z" fill="#454A4D"/>
<path d="M107.29 28.632H108.466V27.384H107.29V28.632ZM108.418 29.724H107.338V36H108.418V29.724Z" fill="#454A4D"/>
<path d="M110.22 36H111.3V32.256C111.3 31.212 112.092 30.612 112.872 30.612C113.808 30.612 114.18 31.272 114.18 32.148V36H115.26V31.86C115.26 30.528 114.504 29.604 113.172 29.604C112.284 29.604 111.66 30.06 111.3 30.576V29.724H110.22V36Z" fill="#454A4D"/>
<path d="M119.502 36.132C120.75 36.132 121.698 35.448 122.082 34.332L121.134 33.996C120.942 34.74 120.342 35.196 119.502 35.196C118.41 35.196 117.654 34.356 117.594 33.036H122.13V32.676C122.13 30.936 121.206 29.604 119.454 29.604C117.75 29.604 116.562 30.996 116.562 32.868C116.562 34.8 117.762 36.132 119.502 36.132ZM119.442 30.528C120.534 30.528 121.014 31.32 121.038 32.208H117.654C117.846 31.14 118.53 30.528 119.442 30.528Z" fill="#454A4D"/>
<defs>
<linearGradient id="paint0_linear" x1="12.8723" y1="19.1951" x2="22.8351" y2="19.1951" gradientUnits="userSpaceOnUse">
<stop stop-color="white"/>
<stop offset="1" stop-color="#2DD7A6"/>
</linearGradient>
<linearGradient id="paint1_linear" x1="7.83722" y1="15.7522" x2="14.258" y2="9.33144" gradientUnits="userSpaceOnUse">
<stop stop-color="white"/>
<stop offset="1" stop-color="#2DD7A6"/>
</linearGradient>
</defs>
</svg>
